<?xml version="1.0" encoding="utf-8"?>
<!-- Generator: Adobe Illustrator 19.2.0, SVG Export Plug-In . SVG Version: 6.00 Build 0)  -->
<svg version="1.1" id="Layer_1" xmlns="http://www.w3.org/2000/svg" xmlns:xlink="http://www.w3.org/1999/xlink" x="0px" y="0px"
	 viewBox="0 0 415 494.3" style="enable-background:new 0 0 415 494.3;" xml:space="preserve">
<style type="text/css">
	.st0{fill:#FFFFFF;}
	.st1{fill:#231F20;}
	.st2{fill:#168141;}
	.st3{fill:#D27528;}
</style>
<title>logo(Aust)</title>
<g id="_Group_">
	<g id="_Group_2">
		<polygon id="_Path_" class="st0" points="411.8,383.6 411.8,3.2 3.2,3.2 3.2,383.6 124.8,491.1 291.5,491.1 		"/>
	</g>
	<g id="_Group_3">
		<path id="_Compound_Path_" class="st1" d="M292.8,494.3H123.6L0,385V0h415v385L292.8,494.3z M126.1,488h164.2l118.2-105.7V6.3H6.5
			v375.9L126.1,488z"/>
	</g>
</g>
<g id="_Group_4">
	<g id="_Group_5">
		<path id="_Compound_Path_2" class="st1" d="M63.9,115.9l18.4,23.6H45.5L63.9,115.9z M32,156.7l8.7-11.3H87l8.7,11.3h12.5l-38-46.1
			H58.1l-37.3,46.1H32z"/>
	</g>
	<g id="_Group_6">
		<path id="_Compound_Path_3" class="st1" d="M136.4,110.6v39.7h49.7v-39.7h11.4v35.2c0,4.2-1.1,7.1-3.4,8.6s-6.4,2.3-12.7,2.3H141
			c-6.2,0-10.4-0.8-12.6-2.3c-2.2-1.5-3.3-4.4-3.4-8.6v-35.3H136.4L136.4,110.6z"/>
	</g>
	<g id="_Group_7">
		<path id="_Compound_Path_4" class="st1" d="M291.2,116.8H243v13h42.9c6.1,0,10.3,0.8,12.6,2.3s3.4,4.3,3.4,8.5v5.2
			c0,4.2-1.1,7.1-3.3,8.6c-2.2,1.5-6.5,2.3-12.7,2.3h-39.8c-6.2,0-10.4-0.8-12.7-2.3c-2.2-1.5-3.4-4.4-3.4-8.6v-1.3l10.5-1.7v7.5h51
			v-13.9h-43c-6.2,0-10.5-0.8-12.6-2.3s-3.3-4.4-3.3-8.6v-4c0-4.2,1.1-7.1,3.3-8.6c2.2-1.5,6.4-2.3,12.6-2.3h36.3
			c6.1,0,10.3,0.8,12.6,2.2s3.5,4.1,3.5,7.9v1l-9.9,1.9L291.2,116.8L291.2,116.8z"/>
	</g>
	<g id="_Group_8">
		<path id="_Compound_Path_5" class="st1" d="M362.9,116.8v39.9h-11.3v-39.9h-31.3v-6.2h74v6.2H362.9z"/>
	</g>
</g>
<g id="_Group_9">
	<path id="_Path_2" class="st2" d="M18.8,77.4v19.8h377.4V77.4c0,0-87.5-0.5-164.8-59.5h-50C181.4,18,120.3,77.4,18.8,77.4z"/>
</g>
<g id="_Group_10">
	<g id="_Group_11">
		<polygon id="_Path_3" class="st2" points="114.4,188.2 114.4,344.6 198.3,323.9 198.3,210.7 		"/>
	</g>
	<g id="_Group_12">
		<polygon id="_Path_4" class="st2" points="300.6,188.2 300.6,344.6 216.7,323.9 216.7,210.7 		"/>
	</g>
</g>
<g id="_Group_13">
	<path id="_Compound_Path_6" class="st3" d="M281.2,475.5H133.8l-0.4-0.4L21.9,378.4v-0.7l0.3-191h77v161.6l63.5,55.2h86.4
		l64.1-55.6V186.8h79.9v191.6l-0.5,0.4L281.2,475.5z M135,472.5h145.1l110-95.5V189.7h-73.9v159.5l-66,57.3h-88.6l-0.4-0.4l-65-56.4
		V189.7H25.2l-0.3,187.4L135,472.5z"/>
</g>
<g id="_Group_14">
	<g id="_Group_15">
		<path id="_Compound_Path_7" class="st1" d="M175.9,369.2h-5.8V353c-2.3,1.5-4.9,2.6-7.6,3.3v-3.9c1.8-0.5,3.4-1.2,5-2.1
			c1.6-0.8,2.8-2,3.7-3.6h4.8L175.9,369.2L175.9,369.2z"/>
	</g>
	<g id="_Group_16">
		<path id="_Compound_Path_8" class="st1" d="M196.7,357.5c-1.7,1.3-4,1.3-5.7,0c-0.8-0.8-1.3-2-1.2-3.2c-0.3-1.9,1.1-3.7,3-4
			c0.3,0,0.5,0,0.8,0c1.1,0,2.2,0.4,3,1.1c0.9,0.8,1.4,2,1.3,3.2C198,355.7,197.5,356.8,196.7,357.5z M187.6,368.2
			c1.7,1,3.7,1.5,5.7,1.4c2.9,0.1,5.8-0.8,8-2.7c2.1-1.8,3.1-4.8,3.1-8.9c0-4-1-6.9-3-8.7c-2.1-1.8-4.8-2.7-7.6-2.6
			c-2.5-0.1-5,0.6-7,2.1c-1.8,1.3-2.8,3.3-2.7,5.5c0,2.1,0.9,4.1,2.6,5.3c1.8,1.4,3.9,2.1,6.2,2c2,0.1,4-0.6,5.5-1.9
			c-0.2,2.6-0.8,4.3-1.6,5.1c-0.8,0.8-1.9,1.2-3,1.2c-0.8,0-1.6-0.2-2.3-0.6c-0.6-0.4-1-1.1-1.1-1.9l-5.6,0.5
			C185.1,365.7,186.1,367.3,187.6,368.2L187.6,368.2z"/>
	</g>
	<g id="_Group_17">
		<path id="_Compound_Path_9" class="st1" d="M220.4,357.5c-1.7,1.3-4,1.3-5.7,0c-0.8-0.8-1.3-2-1.2-3.2c-0.3-1.9,1.1-3.7,3-4
			c0.2,0,0.5,0,0.8,0c1.1,0,2.2,0.4,3,1.1c0.9,0.8,1.4,2,1.3,3.2C221.6,355.7,221.2,356.8,220.4,357.5z M211.3,368.2
			c1.7,1,3.7,1.5,5.7,1.4c2.9,0.1,5.8-0.8,8-2.7c2-1.8,3.1-4.8,3.1-8.9c0-4-1-6.9-3-8.7c-2.1-1.8-4.8-2.7-7.6-2.6
			c-2.5-0.1-5,0.6-7,2.1c-1.8,1.3-2.8,3.3-2.8,5.5c0,2.1,0.9,4.1,2.6,5.3c1.8,1.4,3.9,2.1,6.2,2c2,0.1,4-0.6,5.5-1.9
			c-0.2,2.6-0.8,4.3-1.6,5.1c-0.8,0.8-1.9,1.2-3,1.2c-0.8,0-1.6-0.2-2.3-0.6c-0.6-0.4-1-1.1-1.1-1.9l-5.6,0.5
			C208.7,365.7,209.8,367.3,211.3,368.2L211.3,368.2z"/>
	</g>
	<g id="_Group_18">
		<path id="_Compound_Path_10" class="st1" d="M232,363.5l5.8-0.4c0.1,0.9,0.7,1.8,1.5,2.3c0.8,0.6,1.8,0.9,2.8,0.8
			c1.1,0,2.2-0.4,3.1-1.1c0.9-0.9,1.3-2.1,1.3-3.3c0.1-1.2-0.4-2.3-1.3-3.1c-0.9-0.7-2.1-1.1-3.3-1c-1.6,0-3.2,0.6-4.5,1.6l-4.7-0.5
			l3-11.7h15.4v4h-11l-0.9,3.8c1.3-0.5,2.6-0.7,4-0.7c2.4-0.1,4.7,0.7,6.6,2.1c1.7,1.2,2.7,3.3,2.7,5.4c0,1.9-0.8,3.7-2.2,4.9
			c-2,2-4.7,3-8.3,3c-2.4,0.1-4.8-0.5-6.9-1.6C233.5,367.1,232.3,365.4,232,363.5z"/>
	</g>
</g>
<g id="_Group_19">
	<g id="_Group_20">
		<path id="_Compound_Path_11" class="st1" d="M54.8,205.9l9.3,2.1l-9.3,2.1V205.9L54.8,205.9z M44.9,215.7l25.1-6.1v-3.3l-25.1-5.9
			v3.3l5.7,1.3v6.1l-5.7,1.3V215.7z"/>
	</g>
	<g id="_Group_21">
		<path id="_Compound_Path_12" class="st1" d="M69.9,217.3v3.1h-9.9v6h9.9v3.1H44.9v-3.1h11v-6h-11v-3.1H69.9z"/>
	</g>
	<g id="_Group_22">
		<path id="_Compound_Path_13" class="st1" d="M53.5,235c-1.3,0.1-4.8,0.5-4.8,3.3c0,2.1,1.9,3,3.5,3c2.1,0,2.6-1.1,3.7-3.9
			c0.6-1.5,2-4.9,7.5-4.9c2.7,0,7,1.1,7,5.5c0,3-1.9,5.7-7.6,5.8l-0.2-3.1c1.3-0.1,3.6-0.4,3.6-2.8c0.1-1.3-0.9-2.5-2.2-2.6
			c-0.1,0-0.2,0-0.3,0c-1.6,0-2.3,1-3.3,3.4s-2.1,5.5-8.3,5.5c-3,0-5.6-1.2-6.6-2.5c-0.8-1-1.2-2.3-1.1-3.6c0-1.6,0.3-5.7,8.6-6.3
			L53.5,235z"/>
	</g>
	<g id="_Group_23">
		<path id="_Compound_Path_14" class="st1" d="M54.8,250.7l9.3,2.1l-9.3,2.1V250.7z M44.9,260.5l25.1-6.1v-3.2l-25.1-5.9v3.3
			l5.7,1.3v6.1l-5.7,1.3L44.9,260.5L44.9,260.5z"/>
	</g>
	<g id="_Group_24">
		<path id="_Compound_Path_15" class="st1" d="M69.9,262.2v3l-16.7,6.2l0,0h16.7v2.9H44.9v-3.1l16.4-6.1l0,0H44.9v-2.8L69.9,262.2
			L69.9,262.2z"/>
	</g>
	<g id="_Group_25">
		<path id="_Compound_Path_16" class="st1" d="M69.9,280.6H56.4c-3,0-4.2,0-5.4,0.4c-1.3,0.3-2.2,1.4-2.2,2.7c0,2.9,3,2.9,7.3,2.9
			h13.8v3H56.8c-4.5,0-7-0.1-8.9-0.8c-2.2-0.7-3.6-2.8-3.5-5.1c0-6.2,6.3-6.2,12.1-6.2H70L69.9,280.6L69.9,280.6z"/>
	</g>
	<g id="_Group_26">
		<path id="_Compound_Path_17" class="st1" d="M69.9,292.8v3.1H49.1v7.6h-4.2v-10.7H69.9z"/>
	</g>
	<g id="_Group_27">
		<path id="_Compound_Path_18" class="st1" d="M69.9,305.8v3.1H49.1v7.6h-4.2v-10.7H69.9z"/>
	</g>
	<g id="_Group_28">
		<path id="_Compound_Path_19" class="st1" d="M54.8,322.7l9.3,2.1l-9.3,2.1V322.7z M44.9,332.5l25.1-6.1v-3.2l-25.1-5.9v3.3
			l5.7,1.3v6.1l-5.7,1.3L44.9,332.5L44.9,332.5z"/>
	</g>
	<g id="_Group_29">
		<path id="_Compound_Path_20" class="st1" d="M69.9,334.1v3.1h-9.9v6h9.9v3.1H44.9v-3.1h11v-6h-11v-3.1H69.9z"/>
	</g>
	<g id="_Group_30">
		<path id="_Compound_Path_21" class="st1" d="M67.5,358.9l-9.6,8.3c-2.1,1.8-3,2.6-3.5,3.6c-0.7,1.1-0.4,2.5,0.7,3.3
			c2.5,2.1,4.6,0.3,7.6-2.4l9.8-8.5l2.6,2.2l-9.3,8c-3.2,2.7-5,4.2-7,4.8c-2.3,0.8-4.9,0.2-6.7-1.5c-5.2-4.5-0.7-8.4,3.4-11.9
			l9.5-8.2L67.5,358.9z"/>
	</g>
	<g id="_Group_31">
		<path id="_Compound_Path_22" class="st1" d="M77.8,367.8l2.5,2.2l-6.6,14.8l0,0l11.8-10.2l2.4,2.1l-17.7,15.3l-2.6-2.2l6.5-14.4
			l0,0l-11.6,10l-2.4-2L77.8,367.8z"/>
	</g>
	<g id="_Group_32">
		<path id="_Compound_Path_23" class="st1" d="M90.5,378.7l2.5,2.2l-17.7,15.3l-2.6-2.2L90.5,378.7z"/>
	</g>
	<g id="_Group_33">
		<path id="_Compound_Path_24" class="st1" d="M94.2,382l2.8,2.4l-9.9,14.1l0,0l16.2-8.7l2.7,2.3l-22.3,11.4l-2.8-2.4L94.2,382z"/>
	</g>
	<g id="_Group_34">
		<path id="_Compound_Path_25" class="st1" d="M107.4,393.3l9.4,8.2l-3,2.6l-6.9-6l-3.9,3.4l6.4,5.5l-3,2.6l-6.4-5.5l-4.8,4.1
			l7.1,6.1l-3,2.6l-9.6-8.3L107.4,393.3z"/>
	</g>
	<g id="_Group_35">
		<path id="_Compound_Path_26" class="st1" d="M118.8,408.4l2,1.7c1.7,1.5,2,1.8,2.1,2.5c0,0.9-0.5,1.6-1.2,2.1
			c-0.8,0.8-1.9,1.2-3,1c-0.9-0.5-1.8-1.1-2.5-1.8l-1.9-1.6L118.8,408.4z M101.5,418.9l2.6,2.2l7.4-6.4l0.5,0.5
			c1.7,1.5,1.5,1.9-0.1,6l-2,4.9l3.1,2.7l1.9-4.3c1.6-3.6,1.7-4.6,1.5-6.2v0c0.6,0.4,1.3,0.6,2,0.8c2,0.5,4.4-0.4,6.3-2.1
			c1.7-1.5,3.2-3.8,2.5-5.7c-0.6-1.2-1.4-2.1-2.5-2.9l-5.4-4.7L101.5,418.9z"/>
	</g>
	<g id="_Group_36">
		<path id="_Compound_Path_27" class="st1" d="M122.3,426.4c-0.8,0.9-2.9,3.3-0.6,5.3c1.4,1.3,3.6,1.3,5,0c1.5-1.3,0.9-2.3-0.6-5
			c-0.8-1.5-2.6-4.7,1.3-8.1c1.9-1.7,5.9-3.5,9.6-0.3c2.5,2.1,3.4,5.3-0.5,8.9l-2.7-2.1c0.8-0.9,2.3-2.5,0.3-4.2
			c-0.8-0.7-2.5-1.6-3.9-0.3c-1.1,1-0.8,2.1,0.5,4.5s3.1,5.3-1.3,9c-1.8,1.7-4.3,2.5-6.7,2.2c-1.4-0.3-2.7-0.9-3.8-1.9
			c-1.4-1.2-4.6-4.3,0.8-9.8L122.3,426.4z"/>
	</g>
	<g id="_Group_37">
		<path id="_Compound_Path_28" class="st1" d="M143.8,424.8l2.6,2.2l-17.7,15.3l-2.6-2.2L143.8,424.8z"/>
	</g>
	<g id="_Group_38">
		<path id="_Compound_Path_29" class="st1" d="M148.7,434.2l-3.8-3.3l3-2.6l10.1,8.7l-3,2.6l-3.8-3.3l-14.7,12.8L134,447
			L148.7,434.2z"/>
	</g>
	<g id="_Group_39">
		<path id="_Compound_Path_30" class="st1" d="M152.7,450.3l5.6-12.9l3,2.6l-4,8.6l10-3.5l2.9,2.6l-15,4.9l-7.4,6.4l-2.6-2.2
			L152.7,450.3z"/>
	</g>
	<g id="_Group_40">
		<path id="_Compound_Path_31" class="st1" d="M199,451.2c0-3.2,0.9-7.5,5-7.5c4.4,0,5,4.9,5,7.4c0,6.3-3,7.5-5,7.5
			c-1.8,0-3.4-1.1-4.1-2.7C199.2,454.4,198.9,452.8,199,451.2z M195.3,451.3c0,5,2,11.1,8.7,11.1c6.3,0,8.7-5.5,8.7-11.2
			c0-6.3-2.8-11.2-8.7-11.2C198.3,440,195.2,444.4,195.3,451.3L195.3,451.3z"/>
	</g>
	<g id="_Group_41">
		<path id="_Compound_Path_32" class="st1" d="M215.6,440.4h12.3v3.7h-8.7v5.1h7.5v3.7h-7.5v9.2h-3.6L215.6,440.4L215.6,440.4z"/>
	</g>
	<g id="_Group_42">
		<path id="_Compound_Path_33" class="st1" d="M264.4,451.6c1,0.7,3.9,2.5,6.2,0.5c1.2-0.8,1.5-2.5,0.6-3.7
			c-0.2-0.2-0.4-0.5-0.6-0.6c-1.5-1.3-2.7-0.8-5.8,0.5c-1.7,0.7-5.5,2.3-9.4-1.1c-1.9-1.7-4-5.1-0.3-8.3c2.5-2.2,6.1-2.9,10.2,0.4
			l-2.4,2.4c-1-0.7-2.9-2-4.9-0.2c-0.8,0.7-1.8,2.1-0.4,3.4c1.1,1,2.4,0.7,5.1-0.5s6.1-2.6,10.4,1.1c2.2,1.9,3,4.3,2.6,5.8
			c-0.4,1.3-1.1,2.4-2.2,3.3c-1.4,1.2-4.9,4-11.3-0.7L264.4,451.6z"/>
	</g>
	<g id="_Group_43">
		<path id="_Compound_Path_34" class="st1" d="M285.6,434.4c1.1,1.4,4.6,5.9,0.5,9.5c-3.5,3-9.3,2-14.8-2.8
			c-4.9-4.3-7.5-9.6-3.4-13.2c1.6-1.4,3.8-2,5.9-1.6c1.6,0.3,3,0.8,4.4,1.7l-1.7,2.9c-2.3-1.4-4.3-1.4-5.7-0.3
			c-3.2,2.8,1.7,7,2.8,7.9c1.5,1.4,3.2,2.5,5.1,3.3c1.4,0.5,3,0.3,4.2-0.6c1.7-1.5,0.7-3.7-0.9-5.7L285.6,434.4z"/>
	</g>
	<g id="_Group_44">
		<path id="_Compound_Path_35" class="st1" d="M275.4,422l2.5-2.2l17.8,15.3l-2.5,2.2L275.4,422z"/>
	</g>
	<g id="_Group_45">
		<path id="_Compound_Path_36" class="st1" d="M280.5,417.6l9.4-8.1l3,2.6l-6.9,6l3.9,3.4l6.4-5.5l3,2.6L293,424l4.8,4.1l7.1-6.1
			l3,2.6l-9.7,8.4L280.5,417.6z"/>
	</g>
	<g id="_Group_46">
		<path id="_Compound_Path_37" class="st1" d="M292.3,407.3l2.5-2.2l17,5.8l0,0L300,400.7l2.4-2.1l17.7,15.3l-2.6,2.2l-16.7-5.6l0,0
			l11.6,10l-2.4,2.1L292.3,407.3z"/>
	</g>
	<g id="_Group_47">
		<path id="_Compound_Path_38" class="st1" d="M328,397.7c1.1,1.4,4.6,5.9,0.5,9.5c-3.4,3-9.3,2-14.8-2.8c-4.9-4.3-7.5-9.6-3.4-13.2
			c1.6-1.4,3.8-1.9,5.9-1.5c1.6,0.3,3.1,0.9,4.4,1.7l-1.7,2.9c-2.3-1.4-4.3-1.4-5.6-0.2c-3.2,2.7,1.7,6.9,2.8,7.9
			c1.5,1.4,3.2,2.5,5.1,3.3c1.4,0.5,3,0.3,4.2-0.6c1.7-1.5,0.7-3.7-0.9-5.7L328,397.7z"/>
	</g>
	<g id="_Group_48">
		<path id="_Compound_Path_39" class="st1" d="M317.9,385.2l9.4-8.1l3,2.6l-6.9,5.9l3.9,3.4l6.4-5.5l3,2.6l-6.4,5.5l4.8,4.1l7.1-6.1
			l3,2.6l-9.6,8.4L317.9,385.2z"/>
	</g>
	<g id="_Group_49">
		<path id="_Compound_Path_40" class="st1" d="M358.3,370.9c0.5,1,0.4,2.2-0.3,3.2c-1.1,1.3-3,1-4.4,0.2c-1.4-0.8-2.3-2.3-2.3-3.9
			L358.3,370.9z M364.3,366.9c-1.3,0.3-2.6,0.6-4,0.6c-0.4-0.7-0.9-1.5-3.3-3.6l-2.5,1.8c0.7,0.6,1.4,1.3,1.9,2l-5.2-0.5
			c-0.3-2.3-0.9-4-3-5.3c-2.6-1.6-5.8-1.5-7.5,0.7c-1.8,2.2-0.9,4.8,1.6,6.3c1.7,0.9,3.6,1.4,5.6,1.4c0,2.8,1.5,5.4,4,6.7
			c1.6,1,6.5,3,9.6-0.9c1.2-1.4,1.5-3.3,0.8-5c1.4-0.1,2.7-0.3,4.1-0.7L364.3,366.9z M346.2,366.8c-0.8,0-1.5-0.2-2.2-0.5
			c-0.7-0.3-1-1.2-0.7-1.9c0-0.1,0.1-0.2,0.2-0.3c0.8-0.8,2-0.9,2.9-0.2c0.6,0.3,1,0.9,1.2,1.5c0.1,0.5,0.2,1,0.3,1.4L346.2,366.8z"
			/>
	</g>
	<g id="_Group_50">
		<path id="_Compound_Path_41" class="st1" d="M349.3,344.1v4.6H345v-12.4h4.2v4.6h20.8v3.1H349.3z"/>
	</g>
	<g id="_Group_51">
		<path id="_Compound_Path_42" class="st1" d="M345,334.3v-11.6h4.2v8.4h5.6v-7.8h4.2v7.8h6.8v-8.7h4.2v11.8L345,334.3L345,334.3z"
			/>
	</g>
	<g id="_Group_52">
		<path id="_Compound_Path_43" class="st1" d="M362.4,306.8c2,0.3,8.1,1.4,8.1,6.5c0,4.2-4.9,7.1-12.8,7.1c-7,0-13.2-2.2-13.2-7.3
			c0-2,1.1-3.8,2.9-4.8c1.4-0.8,2.9-1.3,4.5-1.5l1.2,3.1c-2.7,0.4-4.2,1.7-4.2,3.3c0,3.9,6.9,3.9,8.5,3.9c2.1,0.1,4.3-0.2,6.3-0.8
			c1.4-0.4,2.3-1.6,2.5-3c0-2.1-2.6-3-5.3-3.4L362.4,306.8z"/>
	</g>
	<g id="_Group_53">
		<path id="_Compound_Path_44" class="st1" d="M345,304.1V301h9.9v-6.1H345v-3.1h25.1v3.1h-11v6.1h11v3.1L345,304.1L345,304.1z"/>
	</g>
	<g id="_Group_54">
		<path id="_Compound_Path_45" class="st1" d="M345,288.3v-3l16.7-6.3l0,0H345v-2.9h25.1v3.1l-16.4,6.2l0,0h16.4v2.9L345,288.3
			L345,288.3z"/>
	</g>
	<g id="_Group_55">
		<path id="_Compound_Path_46" class="st1" d="M357.6,270.2c-3.7,0-8.6-0.7-8.6-4.3c0-3.8,5.7-4.3,8.5-4.3c7.2,0,8.7,2.6,8.7,4.3
			c0,1.9-1.7,3-3.2,3.5C361.3,270,359.4,270.2,357.6,270.2z M357.7,273.4c5.8,0,12.8-1.7,12.8-7.6c0-5.5-6.4-7.5-12.9-7.5
			c-7.3,0-13,2.5-13,7.5C344.6,270.7,349.7,273.4,357.7,273.4L357.7,273.4z"/>
	</g>
	<g id="_Group_56">
		<path id="_Compound_Path_47" class="st1" d="M345,255.8v-3.1h20.8v-7.8h4.2v11H345z"/>
	</g>
	<g id="_Group_57">
		<path id="_Compound_Path_48" class="st1" d="M357.6,240c-3.7,0-8.6-0.7-8.6-4.3c0-3.8,5.7-4.3,8.5-4.3c7.2,0,8.7,2.6,8.7,4.3
			c0,1.9-1.7,3-3.2,3.5C361.3,239.8,359.4,240.1,357.6,240z M357.7,243.3c5.8,0,12.8-1.7,12.8-7.5c0-5.5-6.4-7.5-12.9-7.5
			c-7.3,0-13,2.5-13,7.5C344.6,240.5,349.7,243.2,357.7,243.3L357.7,243.3z"/>
	</g>
	<g id="_Group_58">
		<path id="_Compound_Path_49" class="st1" d="M356.7,218.6v-6.8h10c1.4,0.9,3.9,3.5,3.9,6.6c0,5.6-6.5,7.9-13,7.9
			c-6.1,0-12.9-2.1-12.9-7.7c0-2.5,1.2-5.8,7.4-6.6l1,3.1c-3.5,0.6-4,2.5-4,3.5c0,1.3,0.7,2.7,2.8,3.6c1.8,0.6,3.7,0.9,5.5,0.8
			c3.7,0,8.9-0.8,8.9-4.5c0-1.8-1.7-3.3-2.1-3.7h-3.2v3.6L356.7,218.6L356.7,218.6z"/>
	</g>
	<g id="_Group_59">
		<path id="_Compound_Path_50" class="st1" d="M359.6,204.7l-14.5,5.7v-3.7l9.9-3.6l-9.9-3.6v-3.6l14.6,5.7h10.5v3.1H359.6z"/>
	</g>
</g>
</svg>
