<svg width="1014" height="611" viewBox="0 0 1014 611" fill="none" xmlns="http://www.w3.org/2000/svg">
<g clip-path="url(#clip0_1_2)">
<path d="M689.469 348.394L698.159 346.891C698.993 346.745 699.82 346.567 700.653 346.416C686.898 337.879 676.457 324.916 671.044 309.659C665.631 294.402 665.569 277.757 670.868 262.46C676.166 247.162 686.51 234.122 700.201 225.482C713.891 216.841 730.113 213.114 746.202 214.913L734.812 242.017L761.797 218.453C761.86 218.469 761.922 218.49 761.981 218.515C770.818 221.627 778.955 226.45 785.928 232.707C792.901 238.964 798.573 246.533 802.621 254.983C806.669 263.432 809.012 272.596 809.518 281.951C810.024 291.306 808.682 300.669 805.57 309.506C805.118 310.791 804.581 312.018 804.065 313.26C811.683 309.432 818.992 304.976 824.951 299.271C837.017 287.709 843.628 271.754 851.015 252.097C865.651 213.145 879.743 173.628 893.272 134.026C878.35 125.951 866.796 112.821 860.686 96.993C854.575 81.1653 854.308 63.6774 859.933 47.6706C860.658 45.6112 861.498 43.6282 862.388 41.6806C862.61 41.1932 862.835 40.7089 863.067 40.2285C863.972 38.3613 864.927 36.5319 865.975 34.7761C866.146 34.4883 866.338 34.219 866.513 33.9343C867.425 32.4539 868.387 31.0174 869.399 29.6247C869.776 29.1018 870.152 28.5803 870.542 28.0699C871.688 26.5703 872.876 25.1111 874.128 23.7181C874.547 23.252 874.991 22.8165 875.42 22.3624C876.382 21.3472 877.371 20.3627 878.386 19.4088C878.921 18.9066 879.45 18.4008 879.999 17.9164C880.14 17.7921 880.272 17.6565 880.414 17.5333C880.421 17.5423 880.426 17.5521 880.433 17.5611C892.999 6.61045 909.005 0.409034 925.669 0.0346882C942.333 -0.339657 958.601 5.13672 971.646 15.512L956.825 50.7821L983.503 27.4993C992.84 39.3947 998.132 53.9622 998.606 69.0767C999.08 84.1912 994.713 99.0619 986.14 111.519C986.165 111.528 986.19 111.535 986.215 111.543C985.924 111.971 985.593 112.363 985.293 112.784C984.731 113.573 984.155 114.348 983.565 115.109C982.807 116.085 982.02 117.028 981.217 117.959C980.61 118.661 980.012 119.369 979.38 120.045C978.457 121.033 977.489 121.969 976.515 122.899C975.946 123.442 975.402 124.012 974.817 124.535C973.283 125.905 971.697 127.205 970.057 128.434C969.482 128.865 968.876 129.245 968.289 129.658C967.137 130.467 965.98 131.265 964.785 132.004C964.044 132.462 963.282 132.881 962.525 133.312C961.429 133.936 960.326 134.541 959.199 135.106C958.4 135.507 957.596 135.887 956.782 136.257C955.625 136.784 954.454 137.273 953.27 137.739C952.476 138.051 951.686 138.367 950.88 138.651C949.551 139.119 948.203 139.525 946.847 139.914C946.163 140.111 945.489 140.336 944.798 140.512C942.764 141.031 940.707 141.473 938.625 141.811C938.234 141.875 937.835 141.899 937.443 141.956C935.717 142.207 933.983 142.41 932.235 142.534C931.484 142.587 930.728 142.594 929.973 142.624C928.56 142.679 927.146 142.707 925.724 142.676C924.894 142.659 924.066 142.616 923.234 142.569C921.849 142.491 920.463 142.37 919.076 142.207C918.256 142.112 917.438 142.018 916.617 141.894C915.131 141.668 913.647 141.373 912.162 141.05C912.064 141.029 911.967 141.016 911.869 140.995C906.159 157.702 900.343 174.374 894.421 191.011C901.644 184.516 910.117 179.566 919.321 176.464C928.525 173.362 938.267 172.173 947.947 172.971C957.627 173.769 967.042 176.537 975.614 181.104C984.186 185.671 991.734 191.942 997.795 199.532L973.131 226.808L1006.53 213.477C1014.64 230.487 1015.66 250.021 1009.38 267.786C1007.2 274.029 1004.15 279.932 1000.32 285.319C992.067 296.989 980.5 305.911 967.116 310.927C953.733 315.943 939.151 316.822 925.262 313.45C911.373 310.077 898.818 302.609 889.225 292.014C879.632 281.419 873.445 268.186 871.464 254.032C870.837 255.708 870.231 257.405 869.602 259.08C863.083 276.421 854.972 298.002 838.684 313.605C827.643 324.181 814.059 330.89 801.027 336.563C792.54 340.256 783.94 343.671 775.228 346.807C765.542 352.68 754.599 356.167 743.302 356.982C729.554 360.801 715.634 363.988 701.583 366.45L692.822 367.96C684.948 369.309 676.875 370.698 668.862 372.297C670.016 372.64 671.171 372.966 672.319 373.37C686.596 378.395 698.906 387.829 707.469 400.31C716.033 412.79 720.406 427.67 719.958 442.799L665.033 459.657L714.734 467.55C710.187 478.723 702.883 488.562 693.503 496.147C684.123 503.733 672.973 508.817 661.096 510.925C649.218 513.032 637 512.096 625.583 508.201C614.166 504.307 603.922 497.582 595.808 488.656C596.313 490.346 596.819 492.034 597.328 493.719C598.337 497.067 599.338 500.397 600.299 503.695C613.377 548.633 607.749 583.982 584.448 603.227L571.804 587.922C594.482 569.188 587.446 530.586 581.238 509.24C580.294 506.001 579.309 502.73 578.318 499.441C569.8 471.144 560.143 439.068 572.65 409.594C591.498 365.169 645.82 355.868 689.469 348.394Z" fill="#F2F2F2"/>
<path d="M673.371 608.992H288.537C275.917 608.992 263.814 603.978 254.891 595.055C245.967 586.131 240.954 574.028 240.954 561.408V385.097C240.954 382.536 241.476 380.003 242.487 377.651C243.498 375.298 244.978 373.177 246.836 371.416L450.76 178.113C458.914 170.384 469.72 166.076 480.954 166.076C492.188 166.076 502.995 170.384 511.148 178.113L705.579 362.417C710.436 367.021 714.304 372.566 716.947 378.714C719.591 384.863 720.954 391.485 720.954 398.177V561.408C720.954 567.657 719.723 573.845 717.332 579.618C714.941 585.391 711.436 590.636 707.017 595.055C702.599 599.473 697.353 602.978 691.58 605.37C685.807 607.761 679.62 608.992 673.371 608.992V608.992Z" fill="#3F3D56"/>
<path opacity="0.1" d="M240.954 387.992H716.954V580.259C716.954 587.88 713.927 595.188 708.539 600.576C703.15 605.964 695.842 608.992 688.222 608.992H269.686C262.066 608.992 254.758 605.964 249.37 600.576C243.981 595.188 240.954 587.88 240.954 580.259V387.992V387.992Z" fill="black"/>
<path d="M631.273 236.492H329.635C315.176 236.492 303.454 248.213 303.454 262.673V564.31C303.454 578.77 315.176 590.492 329.635 590.492H631.273C645.732 590.492 657.454 578.77 657.454 564.31V262.673C657.454 248.213 645.732 236.492 631.273 236.492Z" fill="#55198B"/>
<path opacity="0.1" d="M657.454 395.942V590.492H303.454V395.942L480.454 481.492L657.454 395.942Z" fill="black"/>
<path d="M480.454 492.492L253.66 382.875C252.258 382.197 250.706 381.886 249.15 381.972C247.594 382.057 246.086 382.537 244.766 383.365C243.446 384.193 242.358 385.342 241.604 386.705C240.85 388.069 240.454 389.601 240.454 391.159V579.759C240.454 583.532 241.197 587.269 242.641 590.755C244.085 594.241 246.202 597.408 248.87 600.076C251.538 602.744 254.705 604.861 258.191 606.304C261.677 607.748 265.413 608.492 269.186 608.492H691.722C695.495 608.492 699.231 607.748 702.717 606.304C706.203 604.861 709.371 602.744 712.039 600.076C714.707 597.408 716.823 594.241 718.267 590.755C719.711 587.269 720.454 583.532 720.454 579.759V394.39C720.454 392.489 719.971 390.619 719.051 388.955C718.131 387.292 716.803 385.889 715.193 384.878C713.582 383.868 711.741 383.283 709.843 383.179C707.945 383.074 706.051 383.453 704.339 384.281L480.454 492.492Z" fill="#3F3D56"/>
<path d="M432.954 268.992H333.954V282.992H432.954V268.992Z" fill="#F2F2F2"/>
<path d="M619.954 319.992H325.954V327.992H619.954V319.992Z" fill="#F2F2F2"/>
<path d="M619.954 346.992H325.954V354.992H619.954V346.992Z" fill="#F2F2F2"/>
<path d="M619.954 373.992H325.954V381.992H619.954V373.992Z" fill="#F2F2F2"/>
<path d="M60.9542 608.492H884.954" stroke="#3F3D56" stroke-miterlimit="10"/>
<path d="M0 485.353C0 544.313 36.9886 592.023 82.6993 592.023Z" fill="#46455B"/>
<path d="M82.6993 592.023C82.6993 532.401 123.976 484.155 174.987 484.155Z" fill="#55198B"/>
<path d="M29.9635 490.698C29.9635 546.704 53.5504 592.023 82.6993 592.023Z" fill="#55198B"/>
<path d="M82.6993 592.023C82.6993 515.839 130.409 454.191 189.369 454.191Z" fill="#46455B"/>
<path d="M65.3015 592.775C65.3015 592.775 77.0297 592.414 80.5642 589.897C84.0988 587.38 98.605 584.375 99.4819 588.412C100.359 592.448 117.107 608.488 103.866 608.594C90.6251 608.701 73.0999 606.532 69.5721 604.383C66.0444 602.234 65.3015 592.775 65.3015 592.775Z" fill="#A8A8A8"/>
<path opacity="0.2" d="M104.102 607.189C90.8614 607.296 73.3362 605.127 69.8084 602.978C67.1219 601.341 66.0513 595.469 65.6931 592.76C65.445 592.771 65.3015 592.775 65.3015 592.775C65.3015 592.775 66.0444 602.234 69.5721 604.383C73.0999 606.532 90.6251 608.701 103.866 608.594C107.688 608.564 109.008 607.204 108.936 605.19C108.405 606.406 106.947 607.166 104.102 607.189Z" fill="black"/>
<path d="M719.713 162.771C719.112 168.125 715.028 172.438 713.515 177.61C711.237 185.393 715.175 193.746 720.563 199.807C724.91 204.647 730.174 208.576 736.05 211.366C741.927 214.156 748.299 215.752 754.797 216.062C756.705 216.23 758.629 216.02 760.457 215.445C762.089 214.788 763.558 213.784 764.763 212.502C768.82 208.428 770.998 202.784 771.866 197.1C772.734 191.416 772.397 185.626 772.057 179.886C772.059 178.7 771.843 177.523 771.421 176.414C770.868 175.358 770.108 174.424 769.187 173.667C766.266 170.987 763.048 168.65 759.597 166.701C758.037 166.002 756.661 164.949 755.578 163.626C754.926 162.492 754.504 161.241 754.336 159.944L753.277 154.545C753.088 152.99 752.556 151.495 751.721 150.169C749.849 147.644 746.269 147.301 743.129 147.178L731.624 146.726C728.045 146.586 723.329 145.56 719.836 146.262C716.573 146.919 717.657 149.925 718.25 152.662C719.109 155.967 719.6 159.357 719.713 162.771V162.771Z" fill="#FFB9B9"/>
<path opacity="0.1" d="M719.713 162.771C719.112 168.125 715.028 172.438 713.515 177.61C711.237 185.393 715.175 193.746 720.563 199.807C724.91 204.647 730.174 208.576 736.05 211.366C741.927 214.156 748.299 215.752 754.797 216.062C756.705 216.23 758.629 216.02 760.457 215.445C762.089 214.788 763.558 213.784 764.763 212.502C768.82 208.428 770.998 202.784 771.866 197.1C772.734 191.416 772.397 185.626 772.057 179.886C772.059 178.7 771.843 177.523 771.421 176.414C770.868 175.358 770.108 174.424 769.187 173.667C766.266 170.987 763.048 168.65 759.597 166.701C758.037 166.002 756.661 164.949 755.578 163.626C754.926 162.492 754.504 161.241 754.336 159.944L753.277 154.545C753.088 152.99 752.556 151.495 751.721 150.169C749.849 147.644 746.269 147.301 743.129 147.178L731.624 146.726C728.045 146.586 723.329 145.56 719.836 146.262C716.573 146.919 717.657 149.925 718.25 152.662C719.109 155.967 719.6 159.357 719.713 162.771V162.771Z" fill="black"/>
<path d="M792.901 403.781C791.271 421.654 789.641 439.523 788.011 457.39C786.735 471.45 785.435 485.569 782.932 499.448C782.068 504.231 781.055 508.989 779.853 513.706C776.511 526.804 771.662 539.605 770.098 553.032C770.048 553.419 770.007 553.814 769.966 554.209C769.791 557.178 769.229 560.112 768.295 562.935C767.513 564.985 766.311 566.854 765.463 568.879C763.775 572.929 763.553 577.408 763.347 581.795C757.411 578.457 750.912 576.236 744.175 575.242C740.923 574.757 737.301 574.411 735.086 571.982C732.633 569.299 732.905 565.191 733.316 561.585C734.609 550.389 735.898 539.199 737.185 528.014C737.605 523.202 738.423 518.433 739.63 513.756C740.075 512.2 740.61 510.669 741.153 509.138C741.902 507.03 742.66 504.923 743.228 502.758C744.046 499.259 744.618 495.708 744.94 492.13C746.265 480.868 747.863 469.631 749.262 458.378L749.336 457.785C751.435 440.728 753.032 423.588 752.571 406.407C752.506 403.864 752.398 401.32 752.234 398.768C752.003 395.072 751.666 393.112 754.728 390.799C758.112 388.247 762.565 386.461 766.434 384.79C768.517 383.884 791.452 375.742 791.987 377.529C793.063 381.339 793.628 385.276 793.667 389.235C793.683 394.094 793.428 398.951 792.901 403.781Z" fill="#605D82"/>
<path opacity="0.1" d="M782.932 499.448C782.068 504.231 781.055 508.989 779.853 513.706C776.511 526.804 771.662 539.605 770.098 553.032C770.048 553.419 770.007 553.814 769.966 554.209C759.742 539.605 751.131 523.898 741.153 509.138C741.902 507.03 742.66 504.923 743.228 502.758C744.046 499.259 744.619 495.708 744.94 492.13C746.265 480.868 747.863 469.631 749.262 458.378L749.336 457.785C749.922 460.174 750.758 462.495 751.831 464.708C758.532 478.324 774.453 485.206 782.24 498.238C782.479 498.641 782.71 499.045 782.932 499.448Z" fill="black"/>
<path d="M699.967 379.719C700.305 390.64 702.053 401.462 703.797 412.248L707.397 434.501C709.367 446.681 711.418 459.109 717.182 470.017C721.493 478.178 727.705 485.141 733.325 492.462C747.14 510.461 757.519 530.849 770.619 549.375C774.427 554.76 779.869 560.583 786.368 559.459C790.633 558.721 793.731 555.17 797.083 552.432C801.036 549.204 805.799 546.842 808.909 542.796C812.019 538.75 812.628 532.025 808.415 529.146C806.891 528.302 805.272 527.639 803.593 527.173C797.061 524.689 792.834 518.311 790.144 511.861C787.454 505.412 785.824 498.477 782.24 492.479C774.453 479.447 758.529 472.565 751.827 458.944C748.073 451.315 747.715 442.522 747.428 434.024L746.696 412.362C746.616 409.994 746.554 407.53 747.517 405.364C750.081 399.598 757.822 399.061 764.09 398.33C771.204 397.496 778.095 395.322 784.4 391.922C788.01 389.972 791.537 387.487 793.468 383.867C795.231 380.564 795.474 376.691 795.68 372.953L797.851 333.695C798.037 330.318 798.208 326.826 797.017 323.659C794.028 315.709 783.989 313.111 775.503 313.49C759.713 314.196 745.137 320.988 730.249 325.575C726.561 326.739 722.817 327.715 719.031 328.501C715.69 329.172 711.646 328.893 708.459 329.968C702.792 331.878 702.936 344.272 702.132 349.413C700.473 359.426 699.748 369.572 699.967 379.719V379.719Z" fill="#605D82"/>
<path d="M784.224 561.105C785.616 562.509 786.071 564.566 786.434 566.51C788.445 577.293 789.491 588.234 789.56 599.202C789.467 600.226 789.671 601.254 790.148 602.164C790.541 602.707 791.072 603.134 791.686 603.4C795.711 605.318 800.381 602.645 803.735 599.708C809.951 594.262 815.211 586.953 815.564 578.697C815.499 576.57 815.574 574.442 815.787 572.325C816.333 569.216 818.148 566.508 819.748 563.787C822.469 559.156 824.665 554.235 826.293 549.116C826.904 547.192 827.311 544.77 825.804 543.428C825.269 543.009 824.662 542.694 824.012 542.497L805.834 535.747C804.258 535.162 800.338 545.231 799.716 546.332C798.194 549.025 796.681 550.554 793.628 551.175C790.511 551.81 786.801 550.899 783.893 552.454C778.974 555.084 781.438 558.296 784.224 561.105Z" fill="#535070"/>
<path d="M756.174 567.318C755.836 566.646 755.365 566.049 754.79 565.564C753.949 565.03 752.992 564.705 751.999 564.616C748.538 564.028 744.436 563.641 742.048 566.214C739.808 568.625 740.193 572.554 738.321 575.261C737.729 576.118 736.926 576.824 736.412 577.73C735.774 579.115 735.486 580.636 735.574 582.159C735.477 586.354 735.381 590.557 735.671 594.743C735.913 598.251 736.505 601.927 738.699 604.675C742.22 609.086 748.57 609.721 754.207 610.007L758.772 610.239C760.029 610.392 761.305 610.275 762.513 609.896C763.261 609.55 763.933 609.057 764.487 608.448C765.041 607.838 765.468 607.123 765.74 606.345C768.117 600.439 764.353 594.075 762.035 588.145C759.371 581.33 759.849 573.762 756.174 567.318Z" fill="#535070"/>
<path d="M718.39 132.6C718.334 132.001 718.422 131.398 718.647 130.84C719.316 129.658 721.062 129.979 722.379 130.311C727.676 131.647 733.257 130.438 738.71 130.75C744.164 131.062 750.307 133.788 751.403 139.14C755.362 136.333 758.774 132.827 761.472 128.794C762.986 126.529 764.305 123.935 764.099 121.218C763.802 117.3 760.514 114.37 757.471 111.886L748.397 104.479C747.207 103.384 745.831 102.51 744.335 101.896C742.24 101.18 739.955 101.521 737.741 101.522C731.136 101.527 724.094 98.5208 718.22 101.54C715.766 102.802 713.919 104.963 712.139 107.071L704.041 116.656C703.431 117.267 702.986 118.023 702.747 118.852C702.516 120.022 703.117 121.176 703.327 122.35C703.709 124.492 702.787 126.777 703.496 128.834C704.673 132.248 708.819 132.731 711.353 134.689C712.297 135.418 713.778 137.89 714.903 137.86C716.934 137.806 718.338 134.178 718.39 132.6Z" fill="#3F3D56"/>
<path d="M732.131 160.856C746.452 160.856 758.062 149.246 758.062 134.925C758.062 120.603 746.452 108.993 732.131 108.993C717.809 108.993 706.199 120.603 706.199 134.925C706.199 149.246 717.809 160.856 732.131 160.856Z" fill="#FFB9B9"/>
<path d="M738.204 191.676C737.325 189.156 735.665 186.982 733.466 185.469C731.267 183.956 728.643 183.182 725.975 183.261C725.212 183.403 724.423 183.303 723.719 182.975C723.321 182.67 723.003 182.272 722.792 181.816C721.215 178.981 719.948 175.984 719.011 172.878C718.598 171.505 718.032 169.887 716.643 169.53C716.069 169.455 715.484 169.537 714.952 169.769C714.421 170 713.962 170.371 713.625 170.843C712.966 171.793 712.245 172.699 711.468 173.555C708.206 176.471 702.425 173.813 698.963 176.488C698.398 176.925 697.931 177.485 697.337 177.883C696.743 178.24 696.102 178.515 695.433 178.699C688.749 180.881 682.196 183.448 675.807 186.386C678.11 200.253 680.469 214.361 685.866 227.34C688.435 233.517 691.346 239.566 693.402 245.932C697.96 260.035 698.162 275.126 698.213 289.947C698.248 300.091 698.197 310.452 694.916 320.05C694.033 322.172 693.41 324.392 693.062 326.663C692.864 328.95 693.53 331.472 695.383 332.827C696.457 333.53 697.686 333.962 698.964 334.085C704.651 334.92 710.384 333.406 715.983 332.11C730.992 328.634 746.298 326.645 761.576 324.661L787.175 321.337C789.01 321.213 790.806 320.749 792.472 319.968C797.156 317.404 797.601 310.357 794.692 305.878C793.297 303.731 791.33 301.969 790.158 299.693C788.986 297.417 788.886 294.233 790.903 292.656C795.007 289.449 793.783 283.499 793.979 278.294C794.526 263.742 794.452 249.183 793.757 234.62C793.551 231.605 793.503 228.581 793.612 225.562C794.067 220.444 795.012 215.383 796.435 210.447L804.214 179.819C802.182 176.608 798.291 174.57 794.605 173.645C790.92 172.72 787.081 172.448 783.451 171.323C776.015 169.019 769.394 163.171 761.628 163.716C761.041 163.727 760.463 163.868 759.937 164.129C758.185 165.122 758.463 167.646 758.351 169.656C758.103 174.102 754.832 177.819 751.22 180.425C747.609 183.031 743.483 184.931 740.166 187.902C739.578 188.345 739.097 188.914 738.758 189.567C738.418 190.22 738.229 190.941 738.204 191.676V191.676Z" fill="#3F3D56"/>
<path d="M635.455 220.728C633.735 221.844 631.908 222.784 630 223.535C628.133 224.09 626.368 224.947 624.776 226.07C624.042 226.705 623.426 227.465 622.959 228.315C622.081 229.872 621.637 231.635 621.673 233.422C621.71 235.209 622.225 236.953 623.165 238.473C624.106 239.992 625.437 241.232 627.02 242.061C628.603 242.891 630.379 243.28 632.164 243.189C634.536 242.923 636.841 242.236 638.972 241.159L657.262 233.234C660.357 231.892 663.701 230.32 665.164 227.28C665.335 226.997 665.398 226.661 665.342 226.335C665.195 225.99 664.928 225.71 664.591 225.545C660.466 222.866 656.858 219.464 653.941 215.503C653.191 214.484 652.273 212.079 651.212 211.468C647.341 209.238 638.554 218.717 635.455 220.728Z" fill="#FFB9B9"/>
<path d="M830.982 214.224L837.726 221.927C839.173 223.581 840.622 225.237 841.942 226.994C845.182 231.46 847.782 236.357 849.665 241.544C851.131 245.39 852.347 249.487 851.835 253.571C851.495 255.664 850.93 257.715 850.148 259.687C848.913 263.48 847.381 267.17 845.567 270.723C844.041 273.422 842.317 276.005 840.41 278.45C835.19 285.369 829.477 291.904 823.317 298.002C821.011 300.284 820.045 303.974 819.041 307.059C817.19 312.748 812.786 317.18 808.527 321.382C807.158 322.827 805.645 324.129 804.012 325.267C801.565 326.843 798.706 327.657 795.796 327.607C794.522 327.616 793.261 327.355 792.095 326.841C789.181 325.457 787.699 322.087 787.396 318.874C787.124 315.959 787.613 313.024 788.814 310.354C792.683 301.782 802.62 298.068 809.643 291.813C813.762 288.146 816.911 283.54 820.017 278.983C822.127 276.138 823.889 273.05 825.264 269.786C826.833 265.601 826.222 260.646 827.592 256.392C828.172 254.594 829.202 252.97 829.824 251.186C830.447 249.403 830.604 247.285 829.514 245.742C828.693 244.761 827.645 243.994 826.461 243.507C821.975 241.229 816.949 238.299 816.091 233.341C815.748 230.591 816.467 227.815 818.1 225.576C819.727 223.368 821.628 221.375 823.758 219.647C825.72 217.911 829.02 215.96 830.982 214.224Z" fill="#FFB9B9"/>
<path d="M631.126 231.481C629.935 229.075 628.447 226.621 626.044 225.426C624.879 224.92 623.624 224.656 622.354 224.651C621.084 224.646 619.826 224.899 618.657 225.395C616.328 226.399 614.146 227.718 612.175 229.315L606.362 233.599C605.045 234.463 603.879 235.54 602.912 236.784C601.995 238.294 601.384 239.969 601.115 241.715C600.102 245.696 599.792 249.824 600.201 253.912C601.123 260.466 605.075 266.188 609.424 271.177C612.142 274.295 615.498 277.441 619.632 277.574C621.416 277.632 623.4 276.928 624.143 275.305C624.4 274.661 624.536 273.975 624.546 273.282C624.992 265.971 622.377 258.83 619.327 252.171C618.355 250.428 617.78 248.49 617.645 246.498C617.623 246.163 617.71 245.83 617.893 245.548C618.156 245.275 618.508 245.103 618.885 245.064C623.059 244.238 630.249 247.481 633.177 242.846C635.075 239.841 632.475 234.206 631.126 231.481Z" fill="#FFB9B9"/>
<path d="M717.03 124.44C716.975 123.841 717.063 123.238 717.287 122.68C717.956 121.498 719.702 121.82 721.019 122.152C726.316 123.487 731.897 122.278 737.35 122.59C742.804 122.902 748.947 125.629 750.043 130.98C754.002 128.174 757.414 124.668 760.112 120.635C761.626 118.37 762.945 115.775 762.739 113.059C762.442 109.141 759.154 106.211 756.111 103.726L747.037 96.3189C745.847 95.2245 744.471 94.35 742.975 93.7361C740.88 93.0201 738.595 93.3612 736.381 93.3626C729.776 93.3669 722.734 90.3611 716.86 93.3806C714.406 94.6419 712.559 96.8033 710.779 98.9109L702.681 108.497C702.071 109.108 701.626 109.863 701.387 110.692C701.156 111.862 701.757 113.017 701.967 114.191C702.349 116.332 701.427 118.618 702.136 120.674C703.313 124.088 707.459 124.572 709.993 126.529C710.937 127.258 712.418 129.731 713.543 129.701C715.574 129.646 716.978 126.018 717.03 124.44Z" fill="#3F3D56"/>
<path d="M661.954 195.505C660.907 196.18 659.988 197.036 659.24 198.032C658.289 199.469 658.096 201.284 657.279 202.801C655.531 206.049 651.444 207.204 648.894 209.869C648.489 210.235 648.207 210.718 648.088 211.251C648.076 211.974 648.318 212.678 648.773 213.241L661.07 232.572C665.164 232.933 669.092 230.368 673.188 230.708C674.717 230.835 676.282 231.363 677.749 230.912C678.799 230.446 679.783 229.844 680.675 229.122C683.119 227.576 686.374 227.396 688.424 225.358C690.391 223.402 690.642 220.341 690.619 217.566C690.652 215.157 690.406 212.751 689.888 210.398C688.077 202.978 682.402 197.284 678.845 190.711C677.113 187.511 676.17 185.638 672.504 187.835C668.819 190.043 665.422 192.969 661.954 195.505Z" fill="#3F3D56"/>
<path d="M811.295 185.729C813.606 187.229 815.69 189.054 817.482 191.147C819.355 193.563 820.416 196.519 822.215 198.99C823.96 201.385 826.334 203.24 828.312 205.445C831.313 208.79 833.345 212.871 835.341 216.896C830.466 223.254 825.151 229.261 819.435 234.873C818.798 235.623 817.96 236.174 817.019 236.461C816.38 236.529 815.733 236.438 815.137 236.195C814.541 235.952 814.015 235.565 813.605 235.069C812.719 234.14 812.092 232.995 811.245 232.03C809.247 229.968 806.584 228.681 803.727 228.394C800.896 228.12 798.047 228.081 795.209 228.277C794.586 228.346 793.956 228.24 793.39 227.971C792.969 227.68 792.628 227.289 792.398 226.832C789.068 221.167 790.139 214.054 791.314 207.589L794.009 192.754C794.4 189.92 795.154 187.149 796.252 184.508C797.273 182.327 799.556 178.627 802.363 179.28C805.192 179.939 808.915 184.017 811.295 185.729Z" fill="#3F3D56"/>
<path d="M317.954 283.141C340.598 283.141 358.954 264.751 358.954 242.066C358.954 219.381 340.598 200.992 317.954 200.992C295.311 200.992 276.954 219.381 276.954 242.066C276.954 264.751 295.311 283.141 317.954 283.141Z" fill="white"/>
<path d="M317.954 193.992C308.263 193.992 298.789 196.865 290.731 202.25C282.673 207.634 276.393 215.287 272.684 224.24C268.975 233.194 268.005 243.046 269.896 252.551C271.786 262.056 276.453 270.787 283.306 277.64C290.159 284.493 298.89 289.159 308.395 291.05C317.9 292.941 327.752 291.97 336.706 288.262C345.659 284.553 353.312 278.273 358.696 270.215C364.08 262.156 366.954 252.683 366.954 242.992C366.916 230.008 361.742 217.566 352.56 208.385C343.379 199.204 330.938 194.03 317.954 193.992V193.992ZM307.895 269.117L282.783 244.005L289.826 236.961L307.919 255.053L346.106 216.866L353.149 223.91L307.895 269.117L307.895 269.117Z" fill="#57B894"/>
</g>
<defs>
<clipPath id="clip0_1_2">
<rect width="1013.45" height="610.281" fill="white"/>
</clipPath>
</defs>
</svg>
