<svg version="1.1" id="Layer_1" xmlns="http://www.w3.org/2000/svg" xmlns:xlink="http://www.w3.org/1999/xlink" x="0px" y="0px"
	 width="100%" viewBox="0 0 1586 251" enable-background="new 0 0 1586 251" xml:space="preserve">
<path fill="#FFFFFF" opacity="1.000000" stroke="none" 
	d="
M1587.000000,202.000000 
	C1587.000000,218.661133 1587.000000,235.322250 1587.000000,252.000000 
	C1183.306519,252.000000 779.612915,252.000000 375.634094,251.603073 
	C388.025452,251.149170 400.164276,248.285950 411.975159,243.947815 
	C429.625580,237.464828 445.234680,227.507721 458.218567,214.038696 
	C468.587830,203.281982 477.038116,191.005234 483.080688,177.079147 
	C494.300598,151.220932 497.013550,124.572266 490.553314,97.294174 
	C483.844849,68.967949 468.869659,45.516899 445.899292,27.451378 
	C431.090729,15.804883 414.676544,7.405575 395.962738,3.931130 
	C391.610443,3.123085 387.319275,1.985797 383.000000,1.000000 
	C784.333313,1.000000 1185.666626,1.000000 1587.000000,1.000000 
	C1587.000000,42.440002 1587.000000,83.760292 1586.613525,125.380890 
	C1585.316772,110.252510 1579.186646,97.609985 1564.703735,91.119820 
	C1545.517822,82.522072 1526.633545,82.926842 1508.890625,96.555840 
	C1508.890625,94.055855 1508.890625,91.673233 1508.890625,89.284027 
	C1501.081665,89.284027 1493.675171,89.284027 1486.297363,89.284027 
	C1486.297363,126.963531 1486.297363,164.358215 1486.297363,201.683105 
	C1494.332397,201.683105 1502.066284,201.683105 1510.000000,201.683105 
	C1510.000000,180.722092 1509.714844,160.071869 1510.105835,139.434448 
	C1510.344360,126.843460 1515.620850,116.919853 1527.856201,111.570839 
	C1538.529785,106.904518 1551.116211,109.308220 1556.310303,115.761246 
	C1560.266357,120.676155 1561.931763,126.343987 1561.960571,132.458954 
	C1562.062012,153.954147 1562.000000,175.450104 1562.000000,196.945770 
	C1562.000000,198.545792 1562.000000,200.145813 1562.000000,202.000000 
	C1570.718750,202.000000 1578.859375,202.000000 1587.000000,202.000000 
M1019.721863,193.672318 
	C1019.842163,193.805588 1019.962402,193.938843 1020.008423,194.940567 
	C1019.711060,211.950867 1010.292419,222.241821 996.130432,223.754959 
	C978.375671,225.651978 967.004700,222.924225 963.439819,209.106995 
	C956.974976,211.071106 950.582275,213.346451 944.016724,214.883179 
	C940.071350,215.806641 939.288330,217.484070 940.466858,221.027390 
	C943.627625,230.529709 949.998230,237.395538 958.661560,241.822250 
	C973.095825,249.197647 988.810364,249.857742 1004.138367,246.699097 
	C1031.616211,241.036743 1044.357544,222.098969 1044.846558,195.859650 
	C1045.476929,162.050034 1045.000000,128.219772 1045.000000,94.398399 
	C1045.000000,92.646629 1045.000000,90.894859 1045.000000,89.347641 
	C1036.899292,89.347641 1029.492554,89.347641 1021.857178,89.347641 
	C1021.857178,92.288956 1021.857178,94.881622 1021.857178,97.656982 
	C1018.806885,95.319748 1016.165222,92.907402 1013.169128,91.074524 
	C1005.011414,86.083931 995.903503,85.820465 986.656128,85.952942 
	C964.631592,86.268463 947.117737,98.898560 939.999573,119.803909 
	C934.912781,134.743484 934.471985,150.098251 938.256348,165.207016 
	C942.526489,182.255402 951.988953,196.102081 969.492432,201.578247 
	C987.156860,207.104813 1004.944580,208.957352 1019.721863,193.672318 
M1363.786865,133.046188 
	C1359.644653,134.367340 1355.401733,135.437271 1351.377808,137.053085 
	C1333.848145,144.092239 1320.064819,156.711899 1324.056641,178.925461 
	C1325.683838,187.980209 1330.609985,195.198196 1338.474854,200.012558 
	C1351.480347,207.973770 1365.567627,207.716202 1379.601440,203.885757 
	C1385.370605,202.311081 1390.600220,198.760132 1396.167236,196.063583 
	C1396.167236,197.758728 1396.167236,199.705856 1396.167236,201.758499 
	C1403.478882,201.758499 1410.560669,201.758499 1417.998413,201.758499 
	C1417.998413,190.727539 1418.049072,179.933502 1417.917480,169.141693 
	C1417.904785,168.099396 1417.013184,166.577896 1416.103638,166.114059 
	C1408.925293,162.453201 1401.233643,161.103073 1393.056519,161.044617 
	C1393.432983,169.347458 1390.450073,175.502823 1383.794556,179.628769 
	C1376.163330,184.359634 1367.600952,184.815109 1359.087646,183.832031 
	C1352.675049,183.091522 1347.230469,175.723480 1349.319336,169.819519 
	C1350.746094,165.787216 1354.471191,161.421371 1358.307617,159.587601 
	C1374.640015,151.781281 1391.840454,151.452850 1409.299683,155.658081 
	C1422.920654,158.938828 1432.829224,166.728363 1437.279785,180.012024 
	C1439.564087,186.829697 1439.840454,194.320099 1441.065063,201.753845 
	C1448.519531,201.753845 1456.585083,201.753845 1464.741943,201.753845 
	C1464.741943,164.113556 1464.741943,126.719963 1464.741943,89.277359 
	C1456.415039,89.277359 1448.349365,89.277359 1439.816162,89.277359 
	C1439.816162,107.882202 1439.816162,126.214592 1439.816162,143.877121 
	C1432.584961,140.208145 1425.464722,136.595444 1418.124512,132.871109 
	C1417.774902,128.589752 1417.555176,123.824165 1416.968018,119.104324 
	C1415.282104,105.556335 1407.977417,95.503807 1395.672974,89.989380 
	C1385.253662,85.319809 1374.172852,85.243744 1363.284546,86.207268 
	C1352.832764,87.132141 1342.739258,90.767204 1335.716553,99.051567 
	C1330.463989,105.247925 1326.532104,112.563911 1321.826782,119.660912 
	C1329.612183,124.714127 1336.330078,129.074448 1343.498535,133.727219 
	C1344.184448,132.098541 1344.695923,131.132263 1345.008301,130.105438 
	C1350.920410,110.680557 1368.163940,105.776390 1382.007935,110.905128 
	C1389.689209,113.750786 1394.117432,121.333748 1392.463257,129.286545 
	C1383.075562,130.540939 1373.859497,131.772400 1363.786865,133.046188 
M1058.996460,124.121513 
	C1058.666748,125.536804 1057.903809,127.007713 1058.077148,128.358444 
	C1059.276855,137.704575 1059.834106,147.243713 1062.193481,156.305374 
	C1066.047363,171.107132 1073.784546,183.747757 1086.402954,193.087051 
	C1105.157349,206.967758 1126.062988,208.629517 1147.909912,203.862930 
	C1159.913818,201.243896 1170.816040,195.314789 1178.330200,185.707413 
	C1184.765869,177.478973 1188.987549,167.519150 1194.372925,157.998947 
	C1184.774414,154.360901 1176.587646,151.257950 1168.157593,148.062759 
	C1167.366821,150.719696 1166.977539,153.165665 1165.936279,155.292404 
	C1163.675049,159.910416 1161.767822,164.953262 1158.494507,168.776978 
	C1148.617310,180.315079 1135.733521,183.521118 1120.967773,181.057343 
	C1104.834961,178.365448 1094.740845,168.923462 1088.940918,154.051437 
	C1083.363647,139.750305 1083.018433,125.073013 1086.146973,110.364258 
	C1088.222534,100.606194 1092.345215,91.288849 1100.046265,84.683655 
	C1110.527222,75.694168 1122.805786,72.693367 1136.808716,74.810966 
	C1150.996338,76.956497 1159.445312,84.754204 1164.020264,97.739517 
	C1165.013794,100.559402 1166.088623,103.350609 1167.165161,106.261192 
	C1175.436279,102.344566 1183.135742,98.698631 1190.787842,95.075104 
	C1190.429199,94.067886 1190.192871,93.503899 1190.025635,92.920120 
	C1185.532959,77.235764 1176.921143,64.759033 1162.177246,57.017395 
	C1146.168945,48.611813 1129.023804,48.435463 1111.920776,51.257694 
	C1101.019043,53.056618 1090.999268,58.124859 1082.740112,65.811058 
	C1066.108521,81.289078 1058.884521,100.744171 1058.996460,124.121513 
M1307.000000,132.640884 
	C1306.485596,115.289818 1301.871094,99.314362 1285.198486,91.356766 
	C1266.732666,82.543365 1247.804443,82.675995 1229.950317,95.966713 
	C1229.950317,80.414909 1229.950317,65.380508 1229.950317,50.264351 
	C1221.443726,50.264351 1213.377197,50.264351 1205.280762,50.264351 
	C1205.280762,100.925781 1205.280762,151.322357 1205.280762,201.698853 
	C1213.632080,201.698853 1221.699341,201.698853 1229.702515,201.698853 
	C1229.837769,201.087845 1229.967041,200.775894 1229.967285,200.463852 
	C1229.984741,180.632584 1229.946411,160.801086 1230.045654,140.970276 
	C1230.061768,137.727356 1230.249146,134.370117 1231.092773,131.265579 
	C1235.845093,113.777657 1252.244141,105.139259 1268.625122,110.405289 
	C1277.360107,113.213318 1281.622803,121.077797 1281.901611,131.786163 
	C1282.291748,146.774612 1282.000000,161.780823 1282.000000,176.779434 
	C1282.000000,185.061920 1282.000000,193.344406 1282.000000,201.748459 
	C1290.529785,201.748459 1298.595703,201.748459 1307.000000,201.748459 
	C1307.000000,178.869446 1307.000000,156.240265 1307.000000,132.640884 
M772.505920,201.063629 
	C775.620728,198.887573 778.735474,196.711502 782.096436,194.363480 
	C782.096436,196.937561 782.096436,199.237350 782.096436,201.640045 
	C789.149841,201.640045 796.017395,201.640045 802.999878,201.640045 
	C802.999878,174.962402 803.417969,148.634857 802.809753,122.331047 
	C802.537537,110.559242 797.489136,100.475266 787.142151,93.499474 
	C777.254761,86.833572 766.354736,85.603386 754.902344,85.972008 
	C734.472717,86.629555 719.074402,94.681664 710.792847,114.394341 
	C708.939026,118.806999 708.743958,121.294418 713.219177,123.764236 
	C718.645569,126.759003 723.757507,130.323380 729.429260,133.909180 
	C733.061035,120.551079 739.338928,111.065468 753.339905,109.267738 
	C765.762390,107.672691 780.579590,113.517853 777.531006,129.667618 
	C773.209473,130.446869 768.916260,131.281494 764.602051,131.987747 
	C751.169067,134.186768 737.887085,136.831528 725.821472,143.620270 
	C713.633118,150.478104 707.889099,160.783905 709.013916,174.764618 
	C709.983826,186.819748 715.590820,196.518692 726.449768,201.553314 
	C741.302490,208.439545 756.763611,207.954559 772.505920,201.063629 
M899.000000,144.502594 
	C899.000000,163.593704 899.000000,182.684799 899.000000,201.674255 
	C907.683838,201.674255 915.751465,201.674255 923.000427,201.674255 
	C923.000427,175.279861 923.492432,149.202133 922.806702,123.155403 
	C922.425476,108.672455 915.180725,97.087311 901.658997,91.096077 
	C882.434753,82.578148 863.584900,82.919052 845.843994,96.582634 
	C845.843994,94.035126 845.843994,91.635170 845.843994,89.302490 
	C838.039734,89.302490 830.634888,89.302490 823.315186,89.302490 
	C823.315186,127.000290 823.315186,164.394760 823.315186,201.665344 
	C831.369019,201.665344 839.103882,201.665344 847.000000,201.665344 
	C847.000000,180.681763 846.677307,160.025604 847.111755,139.385391 
	C847.408569,125.279724 853.967163,114.830536 868.065674,110.443390 
	C880.585449,106.547516 893.782715,110.567604 897.212646,122.991753 
	C899.008850,129.497894 898.479248,136.646118 899.000000,144.502594 
M697.393555,178.000000 
	C672.321472,178.000000 647.249451,178.000000 621.769775,178.000000 
	C621.769775,134.959320 621.769775,92.577477 621.769775,50.337360 
	C613.287292,50.337360 605.221680,50.337360 597.323547,50.337360 
	C597.323547,101.052101 597.323547,151.428955 597.323547,201.679626 
	C632.697266,201.679626 667.747375,201.679626 702.840576,201.679626 
	C702.840576,193.746902 702.840576,186.135345 702.840576,178.000000 
	C701.248474,178.000000 699.808411,178.000000 697.393555,178.000000 
M1468.000000,67.275795 
	C1468.000000,66.943886 1468.000488,66.611969 1468.000000,66.280060 
	C1467.986206,56.740864 1462.382812,50.542316 1454.311035,49.896282 
	C1443.556641,49.035542 1436.776367,56.128300 1436.049438,65.769768 
	C1435.576172,72.046104 1442.224365,80.328506 1447.906494,80.996140 
	C1459.193604,82.322319 1466.382812,77.724609 1468.000000,67.275795 
z"/>
<path fill="#1C3C3C" opacity="1.000000" stroke="none" 
	d="
M382.531342,1.000000 
	C387.319275,1.985797 391.610443,3.123085 395.962738,3.931130 
	C414.676544,7.405575 431.090729,15.804883 445.899292,27.451378 
	C468.869659,45.516899 483.844849,68.967949 490.553314,97.294174 
	C497.013550,124.572266 494.300598,151.220932 483.080688,177.079147 
	C477.038116,191.005234 468.587830,203.281982 458.218567,214.038696 
	C445.234680,227.507721 429.625580,237.464828 411.975159,243.947815 
	C400.164276,248.285950 388.025452,251.149170 375.174377,251.603073 
	C290.312439,252.000000 205.624878,252.000000 120.294266,251.603073 
	C102.858574,250.891037 87.030197,246.596634 71.940514,239.441986 
	C52.849594,230.390198 37.012997,217.230362 24.762989,200.104446 
	C14.658907,185.978607 7.058082,170.549484 3.891284,153.208328 
	C3.494462,151.035355 1.990812,149.064499 0.999999,147.000000 
	C1.000000,146.555557 1.000000,146.111099 1.348917,145.222092 
	C1.465222,143.518356 1.232611,142.259171 1.000000,141.000000 
	C1.000000,131.312439 1.000000,121.624878 1.334332,111.376938 
	C1.445776,109.877708 1.222888,108.938850 1.000000,108.000000 
	C1.000000,107.555557 1.000000,107.111107 1.372599,106.217117 
	C2.158979,105.088783 2.731387,104.459824 2.962631,103.723709 
	C6.185194,93.465286 8.476699,82.807678 12.738621,73.005417 
	C20.782295,54.505264 33.293026,39.264168 49.440781,26.931669 
	C62.861710,16.681721 77.476067,9.129263 93.833824,4.990727 
	C99.527954,3.550104 105.276375,2.324050 111.000000,1.000000 
	C201.354233,1.000000 291.708466,1.000000 382.531342,1.000000 
M237.530792,194.136871 
	C240.723251,197.629044 244.694916,197.314896 248.903915,196.700134 
	C244.953140,191.620911 241.178741,186.763916 237.393829,181.915146 
	C237.193008,181.657898 236.856216,181.505142 236.662033,181.244644 
	C234.109161,177.819916 231.009659,174.664352 229.131851,170.900223 
	C223.101608,158.812241 218.120926,146.170288 211.623993,134.353043 
	C203.113052,118.872520 189.978348,107.045273 177.354233,95.014565 
	C168.439194,86.518585 161.329514,76.981506 156.298203,65.772530 
	C150.445053,52.732605 141.672760,43.397343 126.429436,41.660084 
	C116.602058,40.540077 105.750885,44.770718 102.944893,54.356045 
	C102.421326,56.144547 101.494873,58.350189 100.058563,59.239250 
	C95.128731,62.290764 93.033295,67.029327 91.394707,72.125854 
	C89.941734,76.645027 90.973167,81.693237 93.942024,84.842667 
	C94.553688,83.429497 94.928711,82.001152 95.742981,80.896645 
	C96.216446,80.254425 97.817535,79.574684 98.191971,79.859016 
	C103.534088,83.915596 109.323463,84.050148 115.469719,81.861679 
	C116.728439,84.355949 118.300957,86.515671 118.952034,88.924461 
	C122.103745,100.584824 125.365135,112.235085 127.908829,124.035263 
	C131.041626,138.568359 137.613724,151.090210 149.155792,160.338058 
	C153.955307,164.183548 154.992874,168.149765 155.211472,173.727448 
	C155.388992,178.256714 157.056168,182.867081 158.793137,187.144882 
	C159.884766,189.833344 159.786575,191.664001 157.897003,193.621109 
	C153.732758,197.934219 148.675247,195.974335 143.953323,195.407928 
	C138.335297,194.734055 133.049133,194.798782 128.078827,198.132721 
	C130.161438,199.067123 131.890121,199.452637 133.059219,200.476868 
	C134.232208,201.504501 134.847244,203.168991 135.709015,204.557968 
	C136.840088,203.643158 137.957275,202.739594 138.050171,202.664459 
	C140.785233,203.425995 142.626694,204.554443 144.141449,204.216858 
	C146.442368,203.704102 148.497498,202.134094 150.690918,201.083954 
	C155.714066,198.679031 160.678375,198.492249 165.745605,201.539078 
	C163.819580,202.239670 162.109329,202.861771 160.903259,203.300491 
	C163.238495,204.136993 165.826248,205.899124 168.257538,205.704712 
	C170.790695,205.502151 173.069061,203.088120 175.656799,202.258621 
	C177.456894,201.681580 179.591324,202.147522 181.267426,202.147522 
	C179.121460,205.108582 177.153397,207.824188 175.185318,210.539795 
	C175.464722,210.939697 175.744110,211.339600 176.023514,211.739487 
	C180.198441,209.486603 184.267105,206.995041 188.588409,205.070892 
	C191.154007,203.928528 194.778534,202.329590 196.768692,203.303299 
	C201.303040,205.521759 204.889709,205.199631 210.105453,201.097870 
	C204.853027,200.657593 200.934219,200.248383 197.004883,200.020294 
	C192.155869,199.738846 189.063965,196.791031 191.269043,193.909683 
	C195.460190,188.433228 195.006104,182.335464 195.046799,175.835739 
	C198.940475,177.464142 202.276779,179.030487 205.731186,180.266953 
	C212.056442,182.531006 217.401611,185.671021 221.338333,191.582306 
	C225.028564,197.123444 231.094635,197.787308 237.530792,194.136871 
M281.982239,126.527084 
	C269.789764,139.804443 264.841980,154.798035 270.994690,172.478516 
	C278.362091,193.649689 302.259827,206.537048 323.573761,198.905914 
	C329.835358,196.664032 336.325256,193.467819 341.095917,188.989120 
	C350.666595,180.004166 361.291504,171.701294 367.562164,159.765976 
	C369.709259,155.679276 372.262421,153.147980 376.625427,151.556091 
	C380.020203,150.317474 383.249268,147.994385 385.901978,145.470184 
	C393.983276,137.780396 401.910339,129.912109 409.587433,121.819221 
	C415.528259,115.556557 419.110748,107.798355 419.889404,99.267387 
	C421.306793,83.738945 416.588959,70.506348 404.007843,60.439861 
	C390.032074,49.257500 371.006226,46.864815 356.380219,56.751602 
	C344.890259,64.518532 334.842438,74.890335 325.650360,85.412254 
	C319.932556,91.957275 315.351410,98.709282 307.505737,103.649849 
	C298.170166,109.528633 290.735504,118.426064 281.982239,126.527084 
z"/>
<path fill="#1C3C3C" opacity="1.000000" stroke="none" 
	d="
M1587.000000,201.531342 
	C1578.859375,202.000000 1570.718750,202.000000 1562.000000,202.000000 
	C1562.000000,200.145813 1562.000000,198.545792 1562.000000,196.945770 
	C1562.000000,175.450104 1562.062012,153.954147 1561.960571,132.458954 
	C1561.931763,126.343987 1560.266357,120.676155 1556.310303,115.761246 
	C1551.116211,109.308220 1538.529785,106.904518 1527.856201,111.570839 
	C1515.620850,116.919853 1510.344360,126.843460 1510.105835,139.434448 
	C1509.714844,160.071869 1510.000000,180.722092 1510.000000,201.683105 
	C1502.066284,201.683105 1494.332397,201.683105 1486.297363,201.683105 
	C1486.297363,164.358215 1486.297363,126.963531 1486.297363,89.284027 
	C1493.675171,89.284027 1501.081665,89.284027 1508.890625,89.284027 
	C1508.890625,91.673233 1508.890625,94.055855 1508.890625,96.555840 
	C1526.633545,82.926842 1545.517822,82.522072 1564.703735,91.119820 
	C1579.186646,97.609985 1585.316772,110.252510 1586.613525,125.840599 
	C1587.000000,151.020889 1587.000000,176.041794 1587.000000,201.531342 
z"/>
<path fill="#FFFFFF" opacity="1.000000" stroke="none" 
	d="
M0.999999,147.468658 
	C1.990812,149.064499 3.494462,151.035355 3.891284,153.208328 
	C7.058082,170.549484 14.658907,185.978607 24.762989,200.104446 
	C37.012997,217.230362 52.849594,230.390198 71.940514,239.441986 
	C87.030197,246.596634 102.858574,250.891037 119.825607,251.603073 
	C80.410942,252.000000 40.821888,252.000000 1.000000,252.000000 
	C1.000000,217.312790 1.000000,182.625046 0.999999,147.468658 
z"/>
<path fill="#FFFFFF" opacity="1.000000" stroke="none" 
	d="
M110.531342,1.000000 
	C105.276375,2.324050 99.527954,3.550104 93.833824,4.990727 
	C77.476067,9.129263 62.861710,16.681721 49.440781,26.931669 
	C33.293026,39.264168 20.782295,54.505264 12.738621,73.005417 
	C8.476699,82.807678 6.185194,93.465286 2.962631,103.723709 
	C2.731387,104.459824 2.158979,105.088783 1.372599,105.883781 
	C1.000000,71.071350 1.000000,36.142708 1.000000,1.000000 
	C37.353947,1.000000 73.708313,1.000000 110.531342,1.000000 
z"/>
<path fill="#FFFFFF" opacity="1.000000" stroke="none" 
	d="
M1.000000,141.399979 
	C1.232611,142.259171 1.465222,143.518356 1.348917,144.888763 
	C1.000000,143.933319 1.000000,142.866638 1.000000,141.399979 
z"/>
<path fill="#FFFFFF" opacity="1.000000" stroke="none" 
	d="
M1.000000,108.375000 
	C1.222888,108.938850 1.445776,109.877708 1.334332,110.908279 
	C1.000000,110.250000 1.000000,109.500000 1.000000,108.375000 
z"/>
<path fill="#1C3C3C" opacity="1.000000" stroke="none" 
	d="
M1364.215088,133.025024 
	C1373.859497,131.772400 1383.075562,130.540939 1392.463257,129.286545 
	C1394.117432,121.333748 1389.689209,113.750786 1382.007935,110.905128 
	C1368.163940,105.776390 1350.920410,110.680557 1345.008301,130.105438 
	C1344.695923,131.132263 1344.184448,132.098541 1343.498535,133.727219 
	C1336.330078,129.074448 1329.612183,124.714127 1321.826782,119.660912 
	C1326.532104,112.563911 1330.463989,105.247925 1335.716553,99.051567 
	C1342.739258,90.767204 1352.832764,87.132141 1363.284546,86.207268 
	C1374.172852,85.243744 1385.253662,85.319809 1395.672974,89.989380 
	C1407.977417,95.503807 1415.282104,105.556335 1416.968018,119.104324 
	C1417.555176,123.824165 1417.774902,128.589752 1418.124512,132.871109 
	C1425.464722,136.595444 1432.584961,140.208145 1439.816162,143.877121 
	C1439.816162,126.214592 1439.816162,107.882202 1439.816162,89.277359 
	C1448.349365,89.277359 1456.415039,89.277359 1464.741943,89.277359 
	C1464.741943,126.719963 1464.741943,164.113556 1464.741943,201.753845 
	C1456.585083,201.753845 1448.519531,201.753845 1441.065063,201.753845 
	C1439.840454,194.320099 1439.564087,186.829697 1437.279785,180.012024 
	C1432.829224,166.728363 1422.920654,158.938828 1409.299683,155.658081 
	C1391.840454,151.452850 1374.640015,151.781281 1358.307617,159.587601 
	C1354.471191,161.421371 1350.746094,165.787216 1349.319336,169.819519 
	C1347.230469,175.723480 1352.675049,183.091522 1359.087646,183.832031 
	C1367.600952,184.815109 1376.163330,184.359634 1383.794556,179.628769 
	C1390.450073,175.502823 1393.432983,169.347458 1393.056519,161.044617 
	C1401.233643,161.103073 1408.925293,162.453201 1416.103638,166.114059 
	C1417.013184,166.577896 1417.904785,168.099396 1417.917480,169.141693 
	C1418.049072,179.933502 1417.998413,190.727539 1417.998413,201.758499 
	C1410.560669,201.758499 1403.478882,201.758499 1396.167236,201.758499 
	C1396.167236,199.705856 1396.167236,197.758728 1396.167236,196.063583 
	C1390.600220,198.760132 1385.370605,202.311081 1379.601440,203.885757 
	C1365.567627,207.716202 1351.480347,207.973770 1338.474854,200.012558 
	C1330.609985,195.198196 1325.683838,187.980209 1324.056641,178.925461 
	C1320.064819,156.711899 1333.848145,144.092239 1351.377808,137.053085 
	C1355.401733,135.437271 1359.644653,134.367340 1364.215088,133.025024 
z"/>
<path fill="#1C3C3C" opacity="1.000000" stroke="none" 
	d="
M1019.403259,193.238251 
	C1004.944580,208.957352 987.156860,207.104813 969.492432,201.578247 
	C951.988953,196.102081 942.526489,182.255402 938.256348,165.207016 
	C934.471985,150.098251 934.912781,134.743484 939.999573,119.803909 
	C947.117737,98.898560 964.631592,86.268463 986.656128,85.952942 
	C995.903503,85.820465 1005.011414,86.083931 1013.169128,91.074524 
	C1016.165222,92.907402 1018.806885,95.319748 1021.857178,97.656982 
	C1021.857178,94.881622 1021.857178,92.288956 1021.857178,89.347641 
	C1029.492554,89.347641 1036.899292,89.347641 1045.000000,89.347641 
	C1045.000000,90.894859 1045.000000,92.646629 1045.000000,94.398399 
	C1045.000000,128.219772 1045.476929,162.050034 1044.846558,195.859650 
	C1044.357544,222.098969 1031.616211,241.036743 1004.138367,246.699097 
	C988.810364,249.857742 973.095825,249.197647 958.661560,241.822250 
	C949.998230,237.395538 943.627625,230.529709 940.466858,221.027390 
	C939.288330,217.484070 940.071350,215.806641 944.016724,214.883179 
	C950.582275,213.346451 956.974976,211.071106 963.439819,209.106995 
	C967.004700,222.924225 978.375671,225.651978 996.130432,223.754959 
	C1010.292419,222.241821 1019.711060,211.950867 1020.322754,194.402481 
	C1020.666626,193.330002 1020.696228,192.795593 1020.725769,192.261200 
	C1020.284973,192.586899 1019.844116,192.912582 1019.403259,193.238251 
M1018.650818,159.858017 
	C1018.783752,158.546478 1018.827148,157.218567 1019.063660,155.925980 
	C1021.172852,144.398285 1020.774170,133.124710 1014.900024,122.673424 
	C1004.495850,104.161964 978.709351,105.589432 968.151550,119.867447 
	C960.247070,130.557327 959.836121,143.059158 961.926086,155.877502 
	C963.971680,168.424011 972.852722,179.428604 986.591187,181.314514 
	C1003.686951,183.661331 1015.154053,172.680939 1018.650818,159.858017 
z"/>
<path fill="#1C3C3C" opacity="1.000000" stroke="none" 
	d="
M1058.998169,123.657669 
	C1058.884521,100.744171 1066.108521,81.289078 1082.740112,65.811058 
	C1090.999268,58.124859 1101.019043,53.056618 1111.920776,51.257694 
	C1129.023804,48.435463 1146.168945,48.611813 1162.177246,57.017395 
	C1176.921143,64.759033 1185.532959,77.235764 1190.025635,92.920120 
	C1190.192871,93.503899 1190.429199,94.067886 1190.787842,95.075104 
	C1183.135742,98.698631 1175.436279,102.344566 1167.165161,106.261192 
	C1166.088623,103.350609 1165.013794,100.559402 1164.020264,97.739517 
	C1159.445312,84.754204 1150.996338,76.956497 1136.808716,74.810966 
	C1122.805786,72.693367 1110.527222,75.694168 1100.046265,84.683655 
	C1092.345215,91.288849 1088.222534,100.606194 1086.146973,110.364258 
	C1083.018433,125.073013 1083.363647,139.750305 1088.940918,154.051437 
	C1094.740845,168.923462 1104.834961,178.365448 1120.967773,181.057343 
	C1135.733521,183.521118 1148.617310,180.315079 1158.494507,168.776978 
	C1161.767822,164.953262 1163.675049,159.910416 1165.936279,155.292404 
	C1166.977539,153.165665 1167.366821,150.719696 1168.157593,148.062759 
	C1176.587646,151.257950 1184.774414,154.360901 1194.372925,157.998947 
	C1188.987549,167.519150 1184.765869,177.478973 1178.330200,185.707413 
	C1170.816040,195.314789 1159.913818,201.243896 1147.909912,203.862930 
	C1126.062988,208.629517 1105.157349,206.967758 1086.402954,193.087051 
	C1073.784546,183.747757 1066.047363,171.107132 1062.193481,156.305374 
	C1059.834106,147.243713 1059.276855,137.704575 1058.077148,128.358444 
	C1057.903809,127.007713 1058.666748,125.536804 1058.998169,123.657669 
z"/>
<path fill="#1C3C3C" opacity="1.000000" stroke="none" 
	d="
M1307.000000,133.125977 
	C1307.000000,156.240265 1307.000000,178.869446 1307.000000,201.748459 
	C1298.595703,201.748459 1290.529785,201.748459 1282.000000,201.748459 
	C1282.000000,193.344406 1282.000000,185.061920 1282.000000,176.779434 
	C1282.000000,161.780823 1282.291748,146.774612 1281.901611,131.786163 
	C1281.622803,121.077797 1277.360107,113.213318 1268.625122,110.405289 
	C1252.244141,105.139259 1235.845093,113.777657 1231.092773,131.265579 
	C1230.249146,134.370117 1230.061768,137.727356 1230.045654,140.970276 
	C1229.946411,160.801086 1229.984741,180.632584 1229.967285,200.463852 
	C1229.967041,200.775894 1229.837769,201.087845 1229.702515,201.698853 
	C1221.699341,201.698853 1213.632080,201.698853 1205.280762,201.698853 
	C1205.280762,151.322357 1205.280762,100.925781 1205.280762,50.264351 
	C1213.377197,50.264351 1221.443726,50.264351 1229.950317,50.264351 
	C1229.950317,65.380508 1229.950317,80.414909 1229.950317,95.966713 
	C1247.804443,82.675995 1266.732666,82.543365 1285.198486,91.356766 
	C1301.871094,99.314362 1306.485596,115.289818 1307.000000,133.125977 
z"/>
<path fill="#1C3C3C" opacity="1.000000" stroke="none" 
	d="
M772.218201,201.321198 
	C756.763611,207.954559 741.302490,208.439545 726.449768,201.553314 
	C715.590820,196.518692 709.983826,186.819748 709.013916,174.764618 
	C707.889099,160.783905 713.633118,150.478104 725.821472,143.620270 
	C737.887085,136.831528 751.169067,134.186768 764.602051,131.987747 
	C768.916260,131.281494 773.209473,130.446869 777.531006,129.667618 
	C780.579590,113.517853 765.762390,107.672691 753.339905,109.267738 
	C739.338928,111.065468 733.061035,120.551079 729.429260,133.909180 
	C723.757507,130.323380 718.645569,126.759003 713.219177,123.764236 
	C708.743958,121.294418 708.939026,118.806999 710.792847,114.394341 
	C719.074402,94.681664 734.472717,86.629555 754.902344,85.972008 
	C766.354736,85.603386 777.254761,86.833572 787.142151,93.499474 
	C797.489136,100.475266 802.537537,110.559242 802.809753,122.331047 
	C803.417969,148.634857 802.999878,174.962402 802.999878,201.640045 
	C796.017395,201.640045 789.149841,201.640045 782.096436,201.640045 
	C782.096436,199.237350 782.096436,196.937561 782.096436,194.363480 
	C778.735474,196.711502 775.620728,198.887573 772.218201,201.321198 
M774.603455,174.925949 
	C780.645020,167.716934 776.989807,159.316315 778.030945,151.422745 
	C774.453979,152.005875 771.326416,152.230362 768.364441,153.052017 
	C759.398132,155.539291 750.402222,157.983475 741.604797,160.991272 
	C736.467529,162.747650 733.945618,167.530899 734.218201,172.565643 
	C734.502869,177.822235 737.686890,181.959793 743.364258,183.084122 
	C754.762756,185.341446 765.439880,184.471680 774.603455,174.925949 
z"/>
<path fill="#1C3C3C" opacity="1.000000" stroke="none" 
	d="
M899.000000,144.003479 
	C898.479248,136.646118 899.008850,129.497894 897.212646,122.991753 
	C893.782715,110.567604 880.585449,106.547516 868.065674,110.443390 
	C853.967163,114.830536 847.408569,125.279724 847.111755,139.385391 
	C846.677307,160.025604 847.000000,180.681763 847.000000,201.665344 
	C839.103882,201.665344 831.369019,201.665344 823.315186,201.665344 
	C823.315186,164.394760 823.315186,127.000290 823.315186,89.302490 
	C830.634888,89.302490 838.039734,89.302490 845.843994,89.302490 
	C845.843994,91.635170 845.843994,94.035126 845.843994,96.582634 
	C863.584900,82.919052 882.434753,82.578148 901.658997,91.096077 
	C915.180725,97.087311 922.425476,108.672455 922.806702,123.155403 
	C923.492432,149.202133 923.000427,175.279861 923.000427,201.674255 
	C915.751465,201.674255 907.683838,201.674255 899.000000,201.674255 
	C899.000000,182.684799 899.000000,163.593704 899.000000,144.003479 
z"/>
<path fill="#1C3C3C" opacity="1.000000" stroke="none" 
	d="
M697.880920,178.000000 
	C699.808411,178.000000 701.248474,178.000000 702.840576,178.000000 
	C702.840576,186.135345 702.840576,193.746902 702.840576,201.679626 
	C667.747375,201.679626 632.697266,201.679626 597.323547,201.679626 
	C597.323547,151.428955 597.323547,101.052101 597.323547,50.337360 
	C605.221680,50.337360 613.287292,50.337360 621.769775,50.337360 
	C621.769775,92.577477 621.769775,134.959320 621.769775,178.000000 
	C647.249451,178.000000 672.321472,178.000000 697.880920,178.000000 
z"/>
<path fill="#1C3C3C" opacity="1.000000" stroke="none" 
	d="
M1468.000000,67.710693 
	C1466.382812,77.724609 1459.193604,82.322319 1447.906494,80.996140 
	C1442.224365,80.328506 1435.576172,72.046104 1436.049438,65.769768 
	C1436.776367,56.128300 1443.556641,49.035542 1454.311035,49.896282 
	C1462.382812,50.542316 1467.986206,56.740864 1468.000000,66.280060 
	C1468.000488,66.611969 1468.000000,66.943886 1468.000000,67.710693 
z"/>
<path fill="#FFFFFF" opacity="1.000000" stroke="none" 
	d="
M237.232819,194.376999 
	C231.094635,197.787308 225.028564,197.123444 221.338333,191.582306 
	C217.401611,185.671021 212.056442,182.531006 205.731186,180.266953 
	C202.276779,179.030487 198.940475,177.464142 195.046799,175.835739 
	C195.006104,182.335464 195.460190,188.433228 191.269043,193.909683 
	C189.063965,196.791031 192.155869,199.738846 197.004883,200.020294 
	C200.934219,200.248383 204.853027,200.657593 210.105453,201.097870 
	C204.889709,205.199631 201.303040,205.521759 196.768692,203.303299 
	C194.778534,202.329590 191.154007,203.928528 188.588409,205.070892 
	C184.267105,206.995041 180.198441,209.486603 176.023514,211.739487 
	C175.744110,211.339600 175.464722,210.939697 175.185318,210.539795 
	C177.153397,207.824188 179.121460,205.108582 181.267426,202.147522 
	C179.591324,202.147522 177.456894,201.681580 175.656799,202.258621 
	C173.069061,203.088120 170.790695,205.502151 168.257538,205.704712 
	C165.826248,205.899124 163.238495,204.136993 160.903259,203.300491 
	C162.109329,202.861771 163.819580,202.239670 165.745605,201.539078 
	C160.678375,198.492249 155.714066,198.679031 150.690918,201.083954 
	C148.497498,202.134094 146.442368,203.704102 144.141449,204.216858 
	C142.626694,204.554443 140.785233,203.425995 138.050171,202.664459 
	C137.957275,202.739594 136.840088,203.643158 135.709015,204.557968 
	C134.847244,203.168991 134.232208,201.504501 133.059219,200.476868 
	C131.890121,199.452637 130.161438,199.067123 128.078827,198.132721 
	C133.049133,194.798782 138.335297,194.734055 143.953323,195.407928 
	C148.675247,195.974335 153.732758,197.934219 157.897003,193.621109 
	C159.786575,191.664001 159.884766,189.833344 158.793137,187.144882 
	C157.056168,182.867081 155.388992,178.256714 155.211472,173.727448 
	C154.992874,168.149765 153.955307,164.183548 149.155792,160.338058 
	C137.613724,151.090210 131.041626,138.568359 127.908829,124.035263 
	C125.365135,112.235085 122.103745,100.584824 118.952034,88.924461 
	C118.300957,86.515671 116.728439,84.355949 115.469719,81.861679 
	C109.323463,84.050148 103.534088,83.915596 98.191971,79.859016 
	C97.817535,79.574684 96.216446,80.254425 95.742981,80.896645 
	C94.928711,82.001152 94.553688,83.429497 93.942024,84.842667 
	C90.973167,81.693237 89.941734,76.645027 91.394707,72.125854 
	C93.033295,67.029327 95.128731,62.290764 100.058563,59.239250 
	C101.494873,58.350189 102.421326,56.144547 102.944893,54.356045 
	C105.750885,44.770718 116.602058,40.540077 126.429436,41.660084 
	C141.672760,43.397343 150.445053,52.732605 156.298203,65.772530 
	C161.329514,76.981506 168.439194,86.518585 177.354233,95.014565 
	C189.978348,107.045273 203.113052,118.872520 211.623993,134.353043 
	C218.120926,146.170288 223.101608,158.812241 229.131851,170.900223 
	C231.009659,174.664352 234.109161,177.819916 236.662033,181.244644 
	C236.856216,181.505142 237.193008,181.657898 237.393829,181.915146 
	C241.178741,186.763916 244.953140,191.620911 248.903915,196.700134 
	C244.694916,197.314896 240.723251,197.629044 237.232819,194.376999 
M180.362183,199.146835 
	C187.127365,196.066086 187.345215,194.611359 181.896545,189.347000 
	C181.456802,188.922134 181.261597,188.243317 180.955795,187.680847 
	C178.525848,183.211411 176.096619,178.741592 173.513321,173.988831 
	C172.597931,177.598862 172.156357,180.970322 170.856216,183.969604 
	C169.747940,186.526276 167.656586,188.658051 165.991562,190.971634 
	C165.017105,192.325653 164.025833,193.667572 163.042099,195.014923 
	C164.710251,195.666931 166.343323,196.442780 168.058594,196.928360 
	C169.245331,197.264282 171.323151,196.766998 171.666977,197.385101 
	C173.688919,201.020020 176.769333,200.077667 180.362183,199.146835 
z"/>
<path fill="#FFFFFF" opacity="1.000000" stroke="none" 
	d="
M282.229736,126.271332 
	C290.735504,118.426064 298.170166,109.528633 307.505737,103.649849 
	C315.351410,98.709282 319.932556,91.957275 325.650360,85.412254 
	C334.842438,74.890335 344.890259,64.518532 356.380219,56.751602 
	C371.006226,46.864815 390.032074,49.257500 404.007843,60.439861 
	C416.588959,70.506348 421.306793,83.738945 419.889404,99.267387 
	C419.110748,107.798355 415.528259,115.556557 409.587433,121.819221 
	C401.910339,129.912109 393.983276,137.780396 385.901978,145.470184 
	C383.249268,147.994385 380.020203,150.317474 376.625427,151.556091 
	C372.262421,153.147980 369.709259,155.679276 367.562164,159.765976 
	C361.291504,171.701294 350.666595,180.004166 341.095917,188.989120 
	C336.325256,193.467819 329.835358,196.664032 323.573761,198.905914 
	C302.259827,206.537048 278.362091,193.649689 270.994690,172.478516 
	C264.841980,154.798035 269.789764,139.804443 282.229736,126.271332 
M339.321320,115.770210 
	C338.138580,109.189331 340.114685,103.660042 344.475372,98.981125 
	C360.590698,105.001442 369.473358,116.734314 372.995331,133.862076 
	C380.330597,126.759430 386.980438,120.563972 393.346954,114.089920 
	C400.242645,107.077789 404.263153,99.106621 402.099121,88.685921 
	C400.029022,78.717438 394.076752,71.988739 384.813080,69.675125 
	C376.444122,67.584953 367.492310,67.720253 360.524445,74.940483 
	C354.279114,81.411987 348.245209,88.186142 341.366791,93.926598 
	C328.769073,104.440147 330.802094,129.089111 347.594604,135.196503 
	C351.643280,136.668991 350.652496,140.884399 349.639648,143.168884 
	C348.155518,146.516449 347.996490,151.660339 342.508911,151.971741 
	C342.047089,151.997955 341.501648,151.838272 341.108551,151.587234 
	C337.301971,149.156601 333.275299,146.990631 329.779785,144.168961 
	C321.784302,137.714844 318.223114,128.514908 315.397766,118.481308 
	C307.072540,126.702263 298.732178,134.113419 291.494019,142.478333 
	C288.459625,145.985092 286.674652,151.408020 286.217834,156.142746 
	C285.143250,167.280182 291.389160,177.355423 300.989410,181.438156 
	C308.966492,184.830612 322.802551,183.682587 330.377289,175.244614 
	C335.933075,169.055710 341.866943,163.161270 348.024200,157.566925 
	C359.538116,147.105652 357.867798,123.078148 339.321320,115.770210 
z"/>
<path fill="#FFFFFF" opacity="1.000000" stroke="none" 
	d="
M1018.366943,160.166779 
	C1015.154053,172.680939 1003.686951,183.661331 986.591187,181.314514 
	C972.852722,179.428604 963.971680,168.424011 961.926086,155.877502 
	C959.836121,143.059158 960.247070,130.557327 968.151550,119.867447 
	C978.709351,105.589432 1004.495850,104.161964 1014.900024,122.673424 
	C1020.774170,133.124710 1021.172852,144.398285 1019.063660,155.925980 
	C1018.827148,157.218567 1018.783752,158.546478 1018.366943,160.166779 
z"/>
<path fill="#FFFFFF" opacity="1.000000" stroke="none" 
	d="
M1019.562561,193.455292 
	C1019.844116,192.912582 1020.284973,192.586899 1020.725769,192.261200 
	C1020.696228,192.795593 1020.666626,193.330002 1020.359863,193.968231 
	C1019.962402,193.938843 1019.842163,193.805588 1019.562561,193.455292 
z"/>
<path fill="#FFFFFF" opacity="1.000000" stroke="none" 
	d="
M774.325684,175.178482 
	C765.439880,184.471680 754.762756,185.341446 743.364258,183.084122 
	C737.686890,181.959793 734.502869,177.822235 734.218201,172.565643 
	C733.945618,167.530899 736.467529,162.747650 741.604797,160.991272 
	C750.402222,157.983475 759.398132,155.539291 768.364441,153.052017 
	C771.326416,152.230362 774.453979,152.005875 778.030945,151.422745 
	C776.989807,159.316315 780.645020,167.716934 774.325684,175.178482 
z"/>
<path fill="#1C3C3C" opacity="1.000000" stroke="none" 
	d="
M180.071014,199.438293 
	C176.769333,200.077667 173.688919,201.020020 171.666977,197.385101 
	C171.323151,196.766998 169.245331,197.264282 168.058594,196.928360 
	C166.343323,196.442780 164.710251,195.666931 163.042114,195.014923 
	C164.025833,193.667572 165.017105,192.325653 165.991562,190.971634 
	C167.656586,188.658051 169.747940,186.526276 170.856216,183.969604 
	C172.156357,180.970322 172.597931,177.598862 173.513321,173.988831 
	C176.096619,178.741592 178.525848,183.211411 180.955795,187.680847 
	C181.261597,188.243317 181.456802,188.922134 181.896545,189.347000 
	C187.345215,194.611359 187.127365,196.066086 180.071014,199.438293 
z"/>
<path fill="#1C3C3C" opacity="1.000000" stroke="none" 
	d="
M339.725220,115.873695 
	C357.867798,123.078148 359.538116,147.105652 348.024200,157.566925 
	C341.866943,163.161270 335.933075,169.055710 330.377289,175.244614 
	C322.802551,183.682587 308.966492,184.830612 300.989410,181.438156 
	C291.389160,177.355423 285.143250,167.280182 286.217834,156.142746 
	C286.674652,151.408020 288.459625,145.985092 291.494019,142.478333 
	C298.732178,134.113419 307.072540,126.702263 315.397766,118.481308 
	C318.223114,128.514908 321.784302,137.714844 329.779785,144.168961 
	C333.275299,146.990631 337.301971,149.156601 341.108551,151.587234 
	C341.501648,151.838272 342.047089,151.997955 342.508911,151.971741 
	C347.996490,151.660339 348.155518,146.516449 349.639648,143.168884 
	C350.652496,140.884399 351.643280,136.668991 347.594604,135.196503 
	C330.802094,129.089111 328.769073,104.440147 341.366791,93.926598 
	C348.245209,88.186142 354.279114,81.411987 360.524445,74.940483 
	C367.492310,67.720253 376.444122,67.584953 384.813080,69.675125 
	C394.076752,71.988739 400.029022,78.717438 402.099121,88.685921 
	C404.263153,99.106621 400.242645,107.077789 393.346954,114.089920 
	C386.980438,120.563972 380.330597,126.759430 372.995331,133.862076 
	C369.473358,116.734314 360.590698,105.001442 344.475372,98.981125 
	C340.114685,103.660042 338.138580,109.189331 339.725220,115.873695 
z"/>
</svg>